/* XPM */
static char * icewm_xpm[] = {
"46 25 22 1",
" 	c None",
".	c #A7C0DC",
"+	c #9CBAD7",
"@	c #9CB2CC",
"#	c #9CB3CC",
"$	c #9DBAD8",
"%	c #4A4E51",
"&	c #343434",
"*	c #0D0D0D",
"=	c #C4C4C4",
"-	c #E8E8E8",
";	c #808182",
">	c #CCCCCC",
",	c #AEB3B5",
"'	c #9B9FA1",
")	c #C2EAFE",
"!	c #606365",
"~	c #AACEE2",
"{	c #9BB2CB",
"]	c #9AB2D4",
"^	c #9AB3D5",
"/	c #99B3D5",
".......+@@#########@##@##@##@###@######$..... ",
"..............................................",
"..............................................",
"..............................................",
"..............................................",
"..............................................",
"................%%&.*%%&.*%%.%%%&.*%%%........",
"...............&=--*;-->*,--*---'*%---%.......",
"..%%...........&'--&>---&,--*----*'---%.......",
".%))*..........&&>-;----;--'*--=-*=---%....**.",
".%))*.*%%&*&**%%**'---,----;*--,-%-'--!...*%-.",
".%))**~))),*%))))%&--'!----%*--%&&**--%...*-=.",
".%))*;);*;!*~)!!)~*--;*----**--*,'!&--%..&,-,.",
".%))*')%.***))''''&--**>--,**-*''';%*&*.*'--=.",
".%))*!)'%~~*,)!%';%--*&;--'&**!>!'';%;%**>>--.",
".%))**;))~!&*~)),*&%&*.&!%**&!;,';';!!;%;='>-.",
"..**..*****.&****........**;>,!';;,;;!%!=','-.",
"......................*&&!=-''';!'=;!!&''=,,-.",
".........%&&*****&**&&!!;,-=;'!;!=';;!;>';,>=.",
"........*%!;;;;;;'';';'>>=>;',!!,;''!%-,,!'-=.",
"....**&%!!;;;';',,';',>-,-;;;;!',;,;;;>;;%=>>.",
"...*!!!!!!;;;;;';;'>->==>';;!!,>;>,''>;!%%>=,.",
"..............................................",
"..............................................",
".......{]]^^^^^^^^^]^^]^^/^^]^^^^^^^^^^#..... "};
