/* XPM */
static char * icewm_tux_xpm[] = {
"43 25 132 2",
"  	c None",
". 	c #A7C0DC",
"+ 	c #9CBAD7",
"@ 	c #9CB2CC",
"# 	c #9CB3CC",
"$ 	c #9DBAD8",
"% 	c #94AAC4",
"& 	c #75879E",
"* 	c #546177",
"= 	c #323951",
"- 	c #0F0C33",
"; 	c #313750",
"> 	c #535F75",
", 	c #74869D",
"' 	c #92A8C2",
") 	c #505C72",
"! 	c #100C34",
"~ 	c #161638",
"{ 	c #4B566D",
"] 	c #90A6C0",
"^ 	c #394158",
"/ 	c #8296AE",
"( 	c #718299",
"_ 	c #71839A",
": 	c #A6BEDA",
"< 	c #68788E",
"[ 	c #6B7B92",
"} 	c #A4BDD8",
"| 	c #A0B8D4",
"1 	c #20223F",
"2 	c #5E6C82",
"3 	c #7B8EA6",
"4 	c #8599B2",
"5 	c #708198",
"6 	c #6C7C93",
"7 	c #6F8097",
"8 	c #8FA4BE",
"9 	c #4F5B71",
"0 	c #6A7A91",
"a 	c #232743",
"b 	c #19193A",
"c 	c #536076",
"d 	c #6A7990",
"e 	c #384057",
"f 	c #49546A",
"g 	c #8296AF",
"h 	c #64738A",
"i 	c #4E596F",
"j 	c #9EB5D0",
"k 	c #272B46",
"l 	c #566379",
"m 	c #3C455C",
"n 	c #1B1C3C",
"o 	c #90A6BF",
"p 	c #A2BBD6",
"q 	c #788AA2",
"r 	c #65748B",
"s 	c #5D6A81",
"t 	c #899DB6",
"u 	c #7789A1",
"v 	c #4D586E",
"w 	c #2E344D",
"x 	c #6F7F96",
"y 	c #798BA3",
"z 	c #2A2F49",
"A 	c #7F92AA",
"B 	c #879BB4",
"C 	c #617086",
"D 	c #6E7F96",
"E 	c #66758C",
"F 	c #99B0CA",
"G 	c #8DA2BC",
"H 	c #76879F",
"I 	c #8194AD",
"J 	c #718199",
"K 	c #282D47",
"L 	c #98AFC9",
"M 	c #7B8DA5",
"N 	c #30364E",
"O 	c #7F92AB",
"P 	c #98AFCA",
"Q 	c #8498B1",
"R 	c #57647A",
"S 	c #8497B0",
"T 	c #93AAC4",
"U 	c #A6BFDB",
"V 	c #8EA4BD",
"W 	c #74859D",
"X 	c #4E5A70",
"Y 	c #1E1F3E",
"Z 	c #A3BCD8",
"` 	c #2B314A",
" .	c #72849B",
"..	c #6E7E95",
"+.	c #7D8FA8",
"@.	c #9FB7D3",
"#.	c #869AB3",
"$.	c #899EB7",
"%.	c #57657B",
"&.	c #869BB4",
"*.	c #75869E",
"=.	c #606F85",
"-.	c #444E64",
";.	c #A1BAD5",
">.	c #8094AC",
",.	c #5B687F",
"'.	c #8195AD",
").	c #4B566C",
"!.	c #454F65",
"~.	c #A4BDD9",
"{.	c #97ADC8",
"].	c #91A7C1",
"^.	c #131136",
"/.	c #59667C",
"(.	c #475268",
"_.	c #485369",
":.	c #8A9FB8",
"<.	c #99B0CB",
"[.	c #8DA2BB",
"}.	c #8CA1BB",
"|.	c #7C8FA7",
"1.	c #58657C",
"2.	c #2D324C",
"3.	c #616F86",
"4.	c #7D90A9",
"5.	c #72839B",
"6.	c #647389",
"7.	c #353C54",
"8.	c #9BB2CB",
"9.	c #9AB2D4",
"0.	c #9AB3D5",
"a.	c #99B3D5",
". . . . . . + @ @ # # # # # # # # # @ # # @ # # # @ # # # # # # $ . . . . . . . . .   ",
". . . . . . . . . . . . . . . . . % & * = - ; > , ' . . . . . . . . . . . . . . . . . ",
". . . . . . . . . . . . . . . ' ) ! ~ ! ! - - - ! ! { ] . . . . . . . . . . . . . . . ",
". . . . . . . . . . . . . . , ! ^ / ( ! ! ! ! ! ! ! ! ! _ : . . . . . . . . . . . . . ",
". . . . . . . . . . . . . < ! [ } | 1 ! ! ! ! ! ! ! ! ! ! 2 : . . . . . . . . . . . . ",
". . . . . . . . . . . . , ! 3 . . 4 ! ! ! ! ! ! ! ! ! ! ! ! 5 . . . . . . . . . . . . ",
". . . . . . . . . . . ' ! 6 . . . 7 ! ! ! ! ! ! ! ! ! ! ! ! ! 8 . . . . . . . . . . . ",
". . . . . . . . . . . 9 ^ } . . . 0 ! a b ! ! ! c d e ! ! ! ! f . . . . . . . . . . . ",
". . . . . . . . . . % ! g . . . . h i } j k ! l . . } m ! ! n ! o . . . . . . . . . . ",
". . . . . . . . . . & ~ p . . . . 0 q r 8 s ! 4 t _ % u ! ! v w 5 . . . . . . . . . . ",
". . . . . . . . . . c * . . . . . x 5 n y x ! 8 ) z A B ! ! ) C 9 . . . . . . . . . . ",
". . . . . . . . . . ; D . . . . . x h E E p F G ( ! H I ! ! w J b . . . . . . . . . . ",
". . . . . . . . . . - D . . . . . x K L : . . . . ' 7 z ! ! ! M ! . . . . . . . . . . ",
". . . . . . . . . . N D . . . . . u O . . . . . . . P Q ! ! ! i ~ . . . . . . . . . . ",
". . . . . . . . . . > R . . . . . S = T . . . U 8 / V W ! ! ! ! X . . . . . . . . . . ",
". . . . . . . . . . W Y Z . . . . 4 ! ` _  ...+.@.#.$.%.! ! ! ! D . . . . . . . . . . ",
". . . . . . . . . . ' ! &.. . . . *.=.-.S . ;.>.,.$.U '.! ! ! ! 8 . . . . . . . . . . ",
". . . . . . . . . . . ).!.~.. . {.1 8 ].! ^.! ..} . . . /.! ! (.. . . . . . . . . . . ",
". . . . . . . . . . . ] ! , . ~._.{ . . :.r B . . . . . <.! ! [.. . . . . . . . . . . ",
". . . . . . . . . . . . _ ! 4 u ! }.. . . . . . . . . . #.! 6 . . . . . . . . . . . . ",
". . . . . . . . . . . . : 2 ! ! ! : . . . . . . . . . |.! 1.~.. . . . . . . . . . . . ",
". . . . . . . . . . . . . : 5 ! ! $.: . . . . . . [.i ! 6 ~.. . . . . . . . . . . . . ",
". . . . . . . . . . . . . . . 8 f ! 2.3.J 4.5.6.7.! (.[.. . . . . . . . . . . . . . . ",
". . . . . . . . . . . . . . . . . o 5 9 b ! b 9 x 8 . . . . . . . . . . . . . . . . . ",
". . . . . . 8.9.9.0.0.0.0.0.0.0.0.0.9.0.0.9.0.0.a.0.0.9.0.0.0.0.# . . . . . . . . .   "};
