/* XPM */
static char * icewm_bg_xpm[] = {
"43 25 10 1",
" 	c None",
".	c #A7C0DC",
"+	c #9CBAD7",
"@	c #9CB2CC",
"#	c #9CB3CC",
"$	c #9DBAD8",
"%	c #9BB2CB",
"&	c #9AB2D4",
"*	c #9AB3D5",
"=	c #99B3D5",
"......+@@#########@##@###@######$......... ",
"...........................................",
"...........................................",
"...........................................",
"...........................................",
"...........................................",
"...........................................",
"...........................................",
"...........................................",
"...........................................",
"...........................................",
"...........................................",
"...........................................",
"...........................................",
"...........................................",
"...........................................",
"...........................................",
"...........................................",
"...........................................",
"...........................................",
"...........................................",
"...........................................",
"...........................................",
"...........................................",
"......%&&*********&**&**=**&****#......... "};
