/* XPM */
static char * mc_xpm[] = {
"16 16 168 2",
"  	c None",
". 	c #DCDCDC",
"+ 	c #DFDFDE",
"@ 	c #DEDEDE",
"# 	c #DEDEDD",
"$ 	c #DDDDDD",
"% 	c #DBDBDA",
"& 	c #D6D6D6",
"* 	c #969796",
"= 	c #919190",
"- 	c #91918F",
"; 	c #90908F",
"> 	c #8F908F",
", 	c #8F908E",
"' 	c #8E8F8E",
") 	c #949694",
"! 	c #D9DAD7",
"~ 	c #D2D2D2",
"{ 	c #D6D6D5",
"] 	c #848788",
"^ 	c #0B182A",
"/ 	c #091628",
"( 	c #808385",
"_ 	c #D3D3D2",
": 	c #7C7E81",
"< 	c #0C1A2E",
"[ 	c #0A192D",
"} 	c #0B192E",
"| 	c #0B1A2F",
"1 	c #384455",
"2 	c #0F1E32",
"3 	c #0C1B30",
"4 	c #142236",
"5 	c #18273A",
"6 	c #3F4A59",
"7 	c #0A182C",
"8 	c #7A7C7F",
"9 	c #D0D0CF",
"0 	c #D0D0D0",
"a 	c #848587",
"b 	c #18273F",
"c 	c #0D1E37",
"d 	c #0D1F38",
"e 	c #0D1F39",
"f 	c #15273F",
"g 	c #0D203A",
"h 	c #37465A",
"i 	c #A0A6A4",
"j 	c #0C1D35",
"k 	c #7A7D7F",
"l 	c #CCCCCC",
"m 	c #CACACA",
"n 	c #848688",
"o 	c #1B2D49",
"p 	c #0F2441",
"q 	c #102442",
"r 	c #1E324E",
"s 	c #102544",
"t 	c #102543",
"u 	c #0F2442",
"v 	c #D5D6C9",
"w 	c #536175",
"x 	c #7B7F80",
"y 	c #C7C7C6",
"z 	c #C7C7C5",
"A 	c #7C7F85",
"B 	c #172D4D",
"C 	c #2D4260",
"D 	c #1E3454",
"E 	c #122A4D",
"F 	c #122B4E",
"G 	c #122B4D",
"H 	c #122A4C",
"I 	c #E2E3CF",
"J 	c #788598",
"K 	c #7D8085",
"L 	c #C4C4C4",
"M 	c #C3C3C2",
"N 	c #7C8086",
"O 	c #132D52",
"P 	c #364D6D",
"Q 	c #223B5F",
"R 	c #142F56",
"S 	c #4C607F",
"T 	c #19345A",
"U 	c #143057",
"V 	c #67788C",
"W 	c #F9F8E6",
"X 	c #4A5E7A",
"Y 	c #7A7E84",
"Z 	c #BFBFBF",
"` 	c #BEBEBE",
" .	c #7C8188",
"..	c #15325B",
"+.	c #15335D",
"@.	c #16345F",
"#.	c #163560",
"$.	c #28446C",
"%.	c #173561",
"&.	c #1D3B65",
"*.	c #1B3964",
"=.	c #6A7D95",
"-.	c #EAEAD6",
";.	c #8D9BB0",
">.	c #18335B",
",.	c #7A7F85",
"'.	c #B9B9B9",
").	c #7E8389",
"!.	c #173663",
"~.	c #1C3B68",
"{.	c #193A69",
"].	c #1C3C6C",
"^.	c #1A3C6C",
"/.	c #193B6C",
"(.	c #193B6B",
"_.	c #39557D",
":.	c #6B809B",
"<.	c #415B82",
"[.	c #173764",
"}.	c #7B8086",
"|.	c #B6B6B6",
"1.	c #B3B3B3",
"2.	c #7E828A",
"3.	c #193A6A",
"4.	c #3D5A83",
"5.	c #294B7A",
"6.	c #1B3F73",
"7.	c #1C4075",
"8.	c #1C4176",
"9.	c #365686",
"0.	c #1E4276",
"a.	c #1B3E72",
"b.	c #1F4272",
"c.	c #183968",
"d.	c #7B8187",
"e.	c #AFAFAF",
"f.	c #B0B0B0",
"g.	c #999CA0",
"h.	c #273F60",
"i.	c #284062",
"j.	c #284064",
"k.	c #284267",
"l.	c #294369",
"m.	c #29446A",
"n.	c #2A456B",
"o.	c #284268",
"p.	c #284166",
"q.	c #274063",
"r.	c #263E60",
"s.	c #273E5F",
"t.	c #94979B",
"u.	c #ADADAB",
"v.	c #9E9E9E",
"w.	c #C5C5C5",
"x.	c #CBCBCA",
"y.	c #C9C9C9",
"z.	c #C9C9C8",
"A.	c #C8C8C8",
"B.	c #C8C8C7",
"C.	c #C7C7C7",
"D.	c #C6C6C6",
"E.	c #C6C6C5",
"F.	c #9A9A9A",
"G.	c #8B8B8B",
"H.	c #959595",
"I.	c #939393",
"J.	c #919191",
"K.	c #898989",
"                                ",
"  . + + + + + + @ @ # # # $ %   ",
"& # * = - ; ; > > , , , ' ) ! ~ ",
"{ ] ^ / / / / / / / / / / / ( _ ",
"~ : < [ } | 1 2 3 4 5 6 [ 7 8 9 ",
"0 a b c d e f g g e e h i j k l ",
"m n o p q r s s s t t u v w x y ",
"z A B C D E F F F G E H I J K L ",
"M N O P Q R S T U R R V W X Y Z ",
"`  ...+.@.#.$.%.&.*.=.-.;.>.,.'.",
"'.).!.~.{.].^./.(._.:.<.[.%.}.|.",
"1.2.3.4.5.6.7.8.9.0.a.b.(.c.d.e.",
"f.g.h.i.j.k.l.m.n.o.p.q.r.s.t.u.",
"v.w.x.m y.z.A.B.C.D.D.D.E.w.` F.",
"  G.H.I.I.I.I.I.I.I.J.J.J.I.K.  ",
"                                "};
