/* XPM */
static char * closeA_xpm[] = {
"46 46 78 1",
" 	c None",
".	c #19284C",
"+	c #14203D",
"@	c #3656A2",
"#	c #EBEFF8",
"$	c #E5EAF6",
"%	c #E1E6F4",
"&	c #DFE5F4",
"*	c #E2E8F5",
"=	c #E8ECF7",
"-	c #ECF0F9",
";	c #E4E9F6",
">	c #EAEEF8",
",	c #DCE3F3",
"'	c #DEE4F3",
")	c #B9D1F0",
"!	c #E7EBF7",
"~	c #DBE2F3",
"{	c #D8DFF2",
"]	c #D9E0F2",
"^	c #D6DEF1",
"/	c #D4DDF1",
"(	c #D3DCF0",
"_	c #FDFDFE",
":	c #D2DAF0",
"<	c #D0D9EF",
"[	c #CFD8EF",
"}	c #C8D3ED",
"|	c #C7D2EC",
"1	c #CAD4ED",
"2	c #BAC7E8",
"3	c #AFBFE4",
"4	c #A6B8E1",
"5	c #A3B5E0",
"6	c #A2B4E0",
"7	c #A0B3DF",
"8	c #A4B6E1",
"9	c #A8B9E2",
"0	c #BECBE9",
"a	c #B7C5E7",
"b	c #A9BAE2",
"c	c #9DB0DE",
"d	c #9CAFDE",
"e	c #395CAE",
"f	c #ABBBE3",
"g	c #B2C1E5",
"h	c #97ACDC",
"i	c #95AADC",
"j	c #B4C2E6",
"k	c #ACBCE3",
"l	c #9FB2DF",
"m	c #91A7DA",
"n	c #8EA4D9",
"o	c #90A6DA",
"p	c #3E63BA",
"q	c #93A8DB",
"r	c #98ADDD",
"s	c #8BA2D8",
"t	c #8AA1D8",
"u	c #395BAC",
"v	c #94A9DB",
"w	c #8CA3D9",
"x	c #879ED7",
"y	c #859DD6",
"z	c #88A0D7",
"A	c #829BD5",
"B	c #819AD4",
"C	c #849CD6",
"D	c #7E97D3",
"E	c #7B95D3",
"F	c #7C96D3",
"G	c #7892D2",
"H	c #7691D1",
"I	c #9AAEDD",
"J	c #B8C6E7",
"K	c #B1C0E4",
"L	c #7994D2",
"M	c #BDD0EE",
"...........................................+++",
"@#$%&&%%%%%%%%%%%%%%%%%%%%%%%%%%%%%%&%%*=-@;;;",
"@>*,''''',,,,,,,,,,,,,,,,,,,,,,,,''','',$>@)))",
"@!%~{{{,,{{{{{{{{{{{{{{{{{{{{{{{{,,,{,,~*>@)))",
"@!'{{{{{{{{{{{{{{{{{{{{{{{{{{{{{{{]]{{{{&!@)))",
"@;,{^^{{{^^^^^^@@@@@^^@@@@@^^^^^^{{{^{{{&$@)))",
"@*]/(((((((((((@___@@@@___@((((((((((((/,;@)))",
"@*{(::::::<<<<<@@___@@___@@<<<<<<:::<::/,*@)))",
"@~[}||||||||||||@@______@@|||||||}}}|}}1<~@)))",
"@2345666667777777@@____@@77777777666668930@)))",
"@ab6cdddddddddddde@____@edddddddddddddc5f2@)))",
"@g8dhiiiiiiiiiiie@______@eiiiiiiiiiiiihc4j@)))",
"@klimnnonnnnnnnp@___@@___@ennnnnnooonoqh63@)))",
"@brmsttssttttttu___@@@@___@ttttttssstsnqck@)))",
"@5vwxyyxxyyyyyyu@@@@yy@@@@@yyyyyyxxxyxtnh9@)))",
"@7ozABBABBBBBBBBBBBBBBBBBBBBBBBBBAAABACzm5@)))",
"@dzCDEEEEEEEEEEEEEEEEEEEEEEEEEEEEEEFEEDCwc@)))",
"@hFGHHHGGHHHHHHHHHHHHHHHHHHHHHHHHGGGHGGGDI@)))",
"@@@@@@@@@@@@@@@@@@@@@@@@@@@@@@@@@@@@@@@@@@@)))",
"))))))))))))))))))))))))))))))))))))))))))))))",
"))))))))))))))))))))))))))))))))))))))))))))))",
"))))))))))))))))))))))))))))))))))))))))))))))",
"))))))))))))))))))))))))))))))))))))))))))))))",
"...........................................+++",
"@-=**&%%%%%%%%%%%%%%%%%%%%%%%%%%%%*%%%%*$>@;;;",
"@=*'''',,',,,,,,,,,,,,,,,,,,,,,,,,''''''%=@)))",
"@!*~,{,{{~{{{{{{{{{{{{{{{{{{{{{{{{~{,,{,%$@)))",
"@$'{]{]{{{{{{{{{{{{{{{{{{{{{{{{{{{{{{]{]';@)))",
"@;'{{^{^^^^^^^^@@@@@^^@@@@@^^^^^^^{^{{^{';@)))",
"@*]/(((((((((((@___@@@@___@((((((((((((({%@)))",
"@*{/:::<<:<<<<<@@___@@___@@<<<<<<<:<::<:^%@)))",
"@~<}}|}||}||||||@@______@@||||||||}|}}|1[{@)))",
"@2395666666666666@@____@@666666666666684kJ@)))",
"@ab5cdddddddddddde@____@edddddddddddddc69j@)))",
"@K8chiiiiiiiiiiie@______@eiiiiiiiiiiiihd63@)))",
"@klhqnnnnnnnnnnp@___@@___@ennnnnnnnnnomhdf@)))",
"@9rqwtsttttttttu___@@@@___@ttttttttttswqr4@)))",
"@5vwzyyyyyyyyyyu@@@@yy@@@@@yyyyyyyyyyyznq6@)))",
"@cozABBBBBBBBBBBBBBBBBBBBBBBBBBBBBBBBBAzwc@)))",
"@rzCDEEEEEEEEEEEEEEEEEEEEEEEEEEEEEEEEEDAxi@)))",
"@hDLGHGHHGGGGGGGGGGGGGGGGGGGGGGGGGGHHGHLFi@)))",
"@@@@@@@@@@@@@@@@@@@@@@@@@@@@@@@@@@@@@@@@@@@)))",
"))))))))))))))))))))))))))))))))))))))))))))))",
"))))))))))))))))))))))))))))))))))))))))))))))",
"))))))))))))))))))))))))))))))))))))))))))))))",
"MMMMMMMMMMMMMMMMMMMMMMMMMMMMMMMMMMMMMMMMMMMMMM"};
