/* XPM */
static char * closeI_xpm[] = {
"46 46 49 1",
" 	c None",
".	c #293454",
"+	c #003259",
"@	c #798092",
"#	c #E9EEF1",
"$	c #4E5571",
"%	c #E9F0F4",
"&	c #797F95",
"*	c #98B5D1",
"=	c #797F8F",
"-	c #505666",
";	c #9CB7D1",
">	c #525566",
",	c #9DB8D3",
"'	c #567090",
")	c #9FBAD5",
"!	c #FFFFFF",
"~	c #A1BCD7",
"{	c #7A7F92",
"]	c #A3BED9",
"^	c #535667",
"/	c #A5C0DB",
"(	c #607996",
"_	c #A7C2DD",
":	c #F4F5F8",
"<	c #A9C4DF",
"[	c #69809D",
"}	c #ABC6E1",
"|	c #798093",
"1	c #607896",
"2	c #EAEDF1",
"3	c #ADC8E3",
"4	c #555867",
"5	c #B1C8E7",
"6	c #B3C9E5",
"7	c #B3CDE4",
"8	c #797F8D",
"9	c #505662",
"0	c #B4D1E6",
"a	c #525661",
"b	c #525662",
"c	c #505664",
"d	c #525564",
"e	c #535665",
"f	c #B5D3EA",
"g	c #B7D1ED",
"h	c #B9D1F0",
"i	c #BDD0EE",
"j	c #CEDBF0",
"...........................................+++",
"@#########################################$%%%",
"&#########################################$***",
"=#########################################-;;;",
"@#########################################>,,,",
"@##############'''''##'''''###############>)))",
"@##############'!!!''''!!!'###############>)))",
"@##############''!!!''!!!''###############>~~~",
"{###############''!!!!!!''################>]]]",
"{################''!!!!''#################^///",
"@################('!!!!'(#################>___",
"@###############(':!!!!:'(################><<<",
"@##############[':!!''!!:'(###############>}}}",
"|##############12!!''''!!:'###############>333",
"|##############1''''##'''''###############4555",
"|#########################################^666",
"{#########################################^777",
"8#########################################9000",
"abb99c999c9b9d999c999eb99bb99c999c99999^^99fff",
"gggggggggggggggggggggggggggggggggggggggggggggg",
"hhhhhhhhhhhhhhhhhhhhhhhhhhhhhhhhhhhhhhhhhhhhhh",
"iiiiiiiiiiiiiiiiiiiiiiiiiiiiiiiiiiiiiiiiiiiiii",
"jjjjjjjjjjjjjjjjjjjjjjjjjjjjjjjjjjjjjjjjjjjjjj",
"...........................................+++",
"@#########################################>%%%",
"&#########################################>***",
"=#########################################-;;;",
"@#########################################>,,,",
"@##############'''''##'''''###############>)))",
"@##############'!!!''''!!!'###############>)))",
"@##############''!!!''!!!''###############>~~~",
"{###############''!!!!!!''################>]]]",
"{################''!!!!''#################^///",
"@################('!!!!'(#################>___",
"@###############(':!!!!:'(################><<<",
"@##############[':!!''!!:'(###############>}}}",
"|##############12!!''''!!:'###############>333",
"|##############1''''##'''''###############4555",
"|#########################################^666",
"{#########################################^777",
"8#########################################9000",
"abb99c999c9b9d999c999eb99bb99c999c99999^^99fff",
"gggggggggggggggggggggggggggggggggggggggggggggg",
"hhhhhhhhhhhhhhhhhhhhhhhhhhhhhhhhhhhhhhhhhhhhhh",
"iiiiiiiiiiiiiiiiiiiiiiiiiiiiiiiiiiiiiiiiiiiiii",
"jjjjjjjjjjjjjjjjjjjjjjjjjjjjjjjjjjjjjjjjjjjjjj"};
