/* XPM */
static char * closeO_xpm[] = {
"46 46 100 2",
"  	c None",
". 	c #19284C",
"+ 	c #14203D",
"@ 	c #3656A2",
"# 	c #D6DEF1",
"$ 	c #D4DDF1",
"% 	c #CFD8EF",
"& 	c #CDD7EE",
"* 	c #CCD6EE",
"= 	c #D2DAF0",
"- 	c #D8DFF2",
"; 	c #E4E9F6",
"> 	c #D0D9EF",
", 	c #D3DCF0",
"' 	c #B9D1F0",
") 	c #CAD4ED",
"! 	c #C8D3ED",
"~ 	c #C7D2EC",
"{ 	c #C5D1EC",
"] 	c #FDFDFE",
"^ 	c #C0CCEA",
"/ 	c #BCCAE9",
"( 	c #BAC7E8",
"_ 	c #BBC8E8",
": 	c #B8C6E7",
"< 	c #C3CEEB",
"[ 	c #B5C4E6",
"} 	c #ABBBE3",
"| 	c #A3B5E0",
"1 	c #9CAFDE",
"2 	c #95AADC",
"3 	c #94A9DB",
"4 	c #97ACDC",
"5 	c #9DB0DE",
"6 	c #A6B8E1",
"7 	c #AFBFE4",
"8 	c #ACBCE3",
"9 	c #A2B4E0",
"0 	c #8EA4D9",
"a 	c #879ED7",
"b 	c #849CD6",
"c 	c #829BD5",
"d 	c #385BAB",
"e 	c #8AA1D8",
"f 	c #90A6DA",
"g 	c #9AAEDD",
"h 	c #A4B6E1",
"i 	c #B1C0E4",
"j 	c #A0B3DF",
"k 	c #93A8DB",
"l 	c #859DD6",
"m 	c #7C96D3",
"n 	c #738FD0",
"o 	c #708CCF",
"p 	c #6F8BCF",
"q 	c #7691D1",
"r 	c #7F98D4",
"s 	c #8CA3D9",
"t 	c #98ADDD",
"u 	c #88A0D7",
"v 	c #7892D2",
"w 	c #6D8ACE",
"x 	c #6483CB",
"y 	c #607FCA",
"z 	c #5E7EC9",
"A 	c #6785CC",
"B 	c #718ED0",
"C 	c #9FB2DF",
"D 	c #6A88CD",
"E 	c #5B7CC8",
"F 	c #5173C4",
"G 	c #4C70C3",
"H 	c #4B6EC3",
"I 	c #33529A",
"J 	c #35549F",
"K 	c #5476C6",
"L 	c #5C7DC9",
"M 	c #4E71C3",
"N 	c #4066BF",
"O 	c #3E63BB",
"P 	c #3E63BA",
"Q 	c #446AC1",
"R 	c #5274C5",
"S 	c #8BA2D8",
"T 	c #6584CC",
"U 	c #4167C0",
"V 	c #3B5FB2",
"W 	c #395BAC",
"X 	c #3D61B7",
"Y 	c #466BC1",
"Z 	c #5879C7",
"` 	c #5577C6",
" .	c #3F64BD",
"..	c #3555A0",
"+.	c #3B5EB1",
"@.	c #597AC8",
"#.	c #6180CA",
"$.	c #6886CD",
"%.	c #7490D1",
"&.	c #819AD4",
". . . . . . . . . . . . . . . . . . . . . . . . . . . . . . . . . . . . . . . . . . . + + + ",
"@ # $ % % & * * * * * * * * * * * * * * * * * * * * * * * * * * * * * * * & % = $ - @ ; ; ; ",
"@ $ = % & * * * * * * * * * * * * * * * * * * * * * * * * * * * * * * * * * & > , # @ ' ' ' ",
"@ , > % * ) ) ) ) ) ) ) ) ) ! ) ! ! ! ! ! ! ! ! ! ! ! ) ) ) ) ! ) ) ) ) ) ) & % > $ @ ' ' ' ",
"@ = > & ) ) ! ~ ! ! ! ! ! ! ~ ! ~ ~ ~ ~ ~ ~ ~ ~ ~ ~ ~ ~ ~ ~ ~ ~ ~ ! ~ ! ! ) * % > $ @ ' ' ' ",
"@ = > * ) ~ ~ ~ ~ ~ ~ ~ ~ ~ ~ @ @ @ @ @ ~ ~ @ @ @ @ @ ~ ~ ~ ~ ~ ~ ~ ~ ~ ~ ! ! % > , @ ' ' ' ",
"@ > % ) ! { ~ { ~ ~ ~ ~ ~ ~ { @ ] ] ] @ @ @ @ ] ] ] @ { { { { { { ~ { { { ~ ! & > = @ ' ' ' ",
"@ > % * ! ~ ~ ~ ~ ~ ~ ~ ~ ~ { @ @ ] ] ] @ @ ] ] ] @ @ ~ ~ ~ ~ { ~ ~ ~ ~ ~ ~ ! & > = @ ' ' ' ",
"@ ) { ^ / ( _ : ( _ ( ( _ ( : ( @ @ ] ] ] ] ] ] @ @ : : : : : : : ( : ( ( _ / < ~ & @ ' ' ' ",
"@ [ } | 1 2 3 3 3 3 3 3 3 3 3 3 3 @ @ ] ] ] ] @ @ 3 3 3 3 3 3 3 3 3 3 3 3 4 5 6 7 : @ ' ' ' ",
"@ 8 9 2 0 a b c b b b b b b c b c d @ ] ] ] ] @ d c c c c c c c c b c b b e f g h i @ ' ' ' ",
"@ j k l m n o p o o o o o o p o @ @ ] ] ] ] ] ] @ @ p o o p o p o o o o o q r s t 6 @ ' ' ' ",
"@ 4 u v w x y z y y y y y y z @ @ ] ] ] @ @ ] ] ] @ @ y y y y z y y y y y A B r 0 C @ ' ' ' ",
"@ 0 m D E F G H H G H G G G H I ] ] ] J J J J ] ] ] J H H H H H H G H H H K y B c 3 @ ' ' ' ",
"@ b o L M N O O O O O O O O O @ @ @ @ @ P P @ @ @ @ @ O O O O P O O O O O Q R x q S @ ' ' ' ",
"@ m T F U V W W W W W W W W W W W W W W W W W W W W W W W W W W W W W W W X Y Z p b @ ' ' ' ",
"@ w `  .d @ @ ..@ @ @ @ @ @ ..@ ..................................@ ..@ @ @ +.Y z v @ ' ' ' ",
"@ t u m o T y E Z Z Z @.L z y #.#.#.#.#.#.#.#.#.#.#.#.#.y L E Z Z Z Z L #.$.%.&.f j @ ' ' ' ",
"@ @ @ @ @ @ @ @ @ @ @ @ @ @ @ @ @ @ @ @ @ @ @ @ @ @ @ @ @ @ @ @ @ @ @ @ @ @ @ @ @ @ @ ' ' ' ",
"' ' ' ' ' ' ' ' ' ' ' ' ' ' ' ' ' ' ' ' ' ' ' ' ' ' ' ' ' ' ' ' ' ' ' ' ' ' ' ' ' ' ' ' ' ' ",
"' ' ' ' ' ' ' ' ' ' ' ' ' ' ' ' ' ' ' ' ' ' ' ' ' ' ' ' ' ' ' ' ' ' ' ' ' ' ' ' ' ' ' ' ' ' ",
"' ' ' ' ' ' ' ' ' ' ' ' ' ' ' ' ' ' ' ' ' ' ' ' ' ' ' ' ' ' ' ' ' ' ' ' ' ' ' ' ' ' ' ' ' ' ",
"' ' ' ' ' ' ' ' ' ' ' ' ' ' ' ' ' ' ' ' ' ' ' ' ' ' ' ' ' ' ' ' ' ' ' ' ' ' ' ' ' ' ' ' ' ' ",
". . . . . . . . . . . . . . . . . . . . . . . . . . . . . . . . . . . . . . . . . . . + + + ",
"@ # $ % % & * * * * * * * * * * * * * * * * * * * * * * * * * * * * * * * & % = $ - @ ; ; ; ",
"@ $ = % & * * * * * * * * * * * * * * * * * * * * * * * * * * * * * * * * * & > , # @ ' ' ' ",
"@ , > % * ) ) ) ) ) ) ) ) ) ! ) ! ! ! ! ! ! ! ! ! ! ! ) ) ) ) ! ) ) ) ) ) ) & % > $ @ ' ' ' ",
"@ = > & ) ) ! ~ ! ! ! ! ! ! ~ ! ~ ~ ~ ~ ~ ~ ~ ~ ~ ~ ~ ~ ~ ~ ~ ~ ~ ! ~ ! ! ) * % > $ @ ' ' ' ",
"@ = > * ) ~ ~ ~ ~ ~ ~ ~ ~ ~ ~ @ @ @ @ @ ~ ~ @ @ @ @ @ ~ ~ ~ ~ ~ ~ ~ ~ ~ ~ ! ! % > , @ ' ' ' ",
"@ > % ) ! { ~ { ~ ~ ~ ~ ~ ~ { @ ] ] ] @ @ @ @ ] ] ] @ { { { { { { ~ { { { ~ ! & > = @ ' ' ' ",
"@ > % * ! ~ ~ ~ ~ ~ ~ ~ ~ ~ { @ @ ] ] ] @ @ ] ] ] @ @ ~ ~ ~ ~ { ~ ~ ~ ~ ~ ~ ! & > = @ ' ' ' ",
"@ ) { ^ / ( _ : ( _ ( ( _ ( : ( @ @ ] ] ] ] ] ] @ @ : : : : : : : ( : ( ( _ / < ~ & @ ' ' ' ",
"@ [ } | 1 2 3 3 3 3 3 3 3 3 3 3 3 @ @ ] ] ] ] @ @ 3 3 3 3 3 3 3 3 3 3 3 3 4 5 6 7 : @ ' ' ' ",
"@ 8 9 2 0 a b c b b b b b b c b c d @ ] ] ] ] @ d c c c c c c c c b c b b e f g h i @ ' ' ' ",
"@ j k l m n o p o o o o o o p o @ @ ] ] ] ] ] ] @ @ p o o p o p o o o o o q r s t 6 @ ' ' ' ",
"@ 4 u v w x y z y y y y y y z @ @ ] ] ] @ @ ] ] ] @ @ y y y y z y y y y y A B r 0 C @ ' ' ' ",
"@ 0 m D E F G H H G H G G G H I ] ] ] J J J J ] ] ] J H H H H H H G H H H K y B c 3 @ ' ' ' ",
"@ b o L M N O O O O O O O O O @ @ @ @ @ P P @ @ @ @ @ O O O O P O O O O O Q R x q S @ ' ' ' ",
"@ m T F U V W W W W W W W W W W W W W W W W W W W W W W W W W W W W W W W X Y Z p b @ ' ' ' ",
"@ w `  .d @ @ ..@ @ @ @ @ @ ..@ ..................................@ ..@ @ @ +.Y z v @ ' ' ' ",
"@ t u m o T y E Z Z Z @.L z y #.#.#.#.#.#.#.#.#.#.#.#.#.y L E Z Z Z Z L #.$.%.&.f j @ ' ' ' ",
"@ @ @ @ @ @ @ @ @ @ @ @ @ @ @ @ @ @ @ @ @ @ @ @ @ @ @ @ @ @ @ @ @ @ @ @ @ @ @ @ @ @ @ ' ' ' ",
"' ' ' ' ' ' ' ' ' ' ' ' ' ' ' ' ' ' ' ' ' ' ' ' ' ' ' ' ' ' ' ' ' ' ' ' ' ' ' ' ' ' ' ' ' ' ",
"' ' ' ' ' ' ' ' ' ' ' ' ' ' ' ' ' ' ' ' ' ' ' ' ' ' ' ' ' ' ' ' ' ' ' ' ' ' ' ' ' ' ' ' ' ' ",
"' ' ' ' ' ' ' ' ' ' ' ' ' ' ' ' ' ' ' ' ' ' ' ' ' ' ' ' ' ' ' ' ' ' ' ' ' ' ' ' ' ' ' ' ' ' ",
"' ' ' ' ' ' ' ' ' ' ' ' ' ' ' ' ' ' ' ' ' ' ' ' ' ' ' ' ' ' ' ' ' ' ' ' ' ' ' ' ' ' ' ' ' ' "};
