/* XPM */
static char * frameABR_xpm[] = {
"6 6 6 1",
" 	c None",
".	c #CEDBF0",
"+	c #00325A",
"@	c #13345D",
"#	c #0D2B4D",
"$	c #1A3552",
".....+",
".....@",
".....@",
".....@",
".....@",
"#$@@@@"};
