/* XPM */
static char * frameATL_xpm[] = {
"6 28 12 1",
" 	c None",
".	c #00345B",
"+	c #003259",
"@	c #B9D1F0",
"#	c #003562",
"$	c #00335A",
"%	c #003157",
"&	c #003156",
"*	c #BDD0EE",
"=	c #003155",
"-	c #003054",
";	c #CEDBF0",
"      ",
"      ",
"      ",
"      ",
"      ",
".....+",
".@@@@@",
".@@@@@",
".@@@@@",
".@@@@@",
"+@@@@@",
"#@@@@@",
".@@@@@",
"$@@@@@",
"+@@@@@",
"%@@@@@",
"&@@@@@",
"&*****",
"=*****",
"=*****",
"-*****",
"=*****",
"=*****",
"=*****",
"=*****",
"=*****",
"=*****",
"=;;;;;"};
