/* XPM */
static char * maximizeI_xpm[] = {
"26 46 28 1",
" 	c None",
".	c #293454",
"+	c #8B8E9D",
"@	c #E9EEF1",
"#	c #8C8D92",
"$	c #8A8D94",
"%	c #878A91",
"&	c #567090",
"*	c #858891",
"=	c #FBFCFF",
"-	c #83868F",
";	c #80838C",
">	c #7B7F8A",
",	c #6C788C",
"'	c #B7D1ED",
")	c #B9D1F0",
"!	c #BDD0EE",
"~	c #CEDBF0",
"{	c #728096",
"]	c #647790",
"^	c #636977",
"/	c #636979",
"(	c #646A7A",
"_	c #666C7C",
":	c #686E7E",
"<	c #6B7181",
"[	c #6F7585",
"}	c #777D8B",
"..........................",
"+@@@@@@@@@@@@@@@@@@@@@@@@@",
"+@@@@@@@@@@@@@@@@@@@@@@@@@",
"#@@@@@@@@@@@@@@@@@@@@@@@@@",
"$@@@@@@@@@@@@@@@@@@@@@@@@@",
"%@@@@@@&&&&&&&&&&&&@@@@@@@",
"*@@@@@@&==========&@@@@@@@",
"-@@@@@@&==========&@@@@@@@",
";@@@@@@&==&&&&&&==&@@@@@@@",
">@@@@@@&==&@@@@&==&@@@@@@@",
"&@@@@@@&==&@@@@&==&@@@@@@@",
"&@@@@@@&==&&&&&&==&@@@@@@@",
"&@@@@@@&==========&@@@@@@@",
"&@@@@@@&==========&@@@@@@@",
"&@@@@@@&&&&&&&&&&&&@@@@@@@",
"&@@@@@@@@@@@@@@@@@@@@@@@@@",
"&@@@@@@@@@@@@@@@@@@@@@@@@@",
",@@@@@@@@@@@@@@@@@@@@@@@@@",
"&&&&&&&&&&&&&&&&&&&&&&&&&&",
"''''''''''''''''''''''''''",
"))))))))))))))))))))))))))",
"!!!!!!!!!!!!!!!!!!!!!!!!!!",
"~~~~~~~~~~~~~~~~~~~~~~~~~~",
"..........................",
"{@@@@@@@@@@@@@@@@@@@@@@@@@",
"{@@@@@@@@@@@@@@@@@@@@@@@@@",
"]@@@@@@@@@@@@@@@@@@@@@@@@@",
"&@@@@@@@@@@@@@@@@@@@@@@@@@",
"&@@@@@@&&&&&&&&&&&&@@@@@@@",
"&@@@@@@&==========&@@@@@@@",
"&@@@@@@&==========&@@@@@@@",
"&@@@@@@&==&&&&&&==&@@@@@@@",
"&@@@@@@&==&@@@@&==&@@@@@@@",
"^@@@@@@&==&@@@@&==&@@@@@@@",
"/@@@@@@&==&&&&&&==&@@@@@@@",
"(@@@@@@&==========&@@@@@@@",
"_@@@@@@&==========&@@@@@@@",
":@@@@@@&&&&&&&&&&&&@@@@@@@",
"<@@@@@@@@@@@@@@@@@@@@@@@@@",
"[@@@@@@@@@@@@@@@@@@@@@@@@@",
"}@@@@@@@@@@@@@@@@@@@@@@@@@",
"&&&&&&&&&&&&&&&&&&&&&&&&&&",
"''''''''''''''''''''''''''",
"))))))))))))))))))))))))))",
"!!!!!!!!!!!!!!!!!!!!!!!!!!",
"~~~~~~~~~~~~~~~~~~~~~~~~~~"};
