/* XPM */
static char * maximizeO_xpm[] = {
"26 46 115 2",
"  	c None",
". 	c #293454",
"+ 	c #8B8E9D",
"@ 	c #BDE9F1",
"# 	c #BCE8F1",
"$ 	c #BBE7F1",
"% 	c #BBE8F1",
"& 	c #BBE9F1",
"* 	c #BAE8F1",
"= 	c #B9E7F1",
"- 	c #8C8D92",
"; 	c #BAE7F1",
"> 	c #B9E6F1",
", 	c #B8E6F1",
"' 	c #8A8D94",
") 	c #B8E7F1",
"! 	c #B7E6F1",
"~ 	c #B7E5F1",
"{ 	c #878A91",
"] 	c #B5E6F1",
"^ 	c #B5E5F1",
"/ 	c #B6E5F1",
"( 	c #B5E4F1",
"_ 	c #567090",
": 	c #B6E6F1",
"< 	c #858891",
"[ 	c #B4E4F1",
"} 	c #B3E3F1",
"| 	c #FFFFFF",
"1 	c #83868F",
"2 	c #B4E5F1",
"3 	c #B3E4F1",
"4 	c #80838C",
"5 	c #A5DEF1",
"6 	c #A5DDF1",
"7 	c #A4DCF1",
"8 	c #A5DCF1",
"9 	c #A6DDF1",
"0 	c #787F8A",
"a 	c #78C8F1",
"b 	c #77C7F1",
"c 	c #77C8F1",
"d 	c #76C7F1",
"e 	c #61C0F1",
"f 	c #60BFF1",
"g 	c #60BEF1",
"h 	c #60C0F1",
"i 	c #4B7090",
"j 	c #4AB3F1",
"k 	c #49B3F1",
"l 	c #49B2F1",
"m 	c #497090",
"n 	c #49B4F1",
"o 	c #3B7090",
"p 	c #36AAF0",
"q 	c #34AAEF",
"r 	c #34AAF0",
"s 	c #34A9EF",
"t 	c #347090",
"u 	c #34ABF0",
"v 	c #2C7090",
"w 	c #239FEC",
"x 	c #219FEB",
"y 	c #21A0EB",
"z 	c #209FEB",
"A 	c #209FEA",
"B 	c #207090",
"C 	c #219FEC",
"D 	c #21A0EC",
"E 	c #1E7090",
"F 	c #1196E8",
"G 	c #0F95E7",
"H 	c #0F96E7",
"I 	c #0F95E6",
"J 	c #0F7090",
"K 	c #0F95E8",
"L 	c #0F96E8",
"M 	c #147090",
"N 	c #058CE4",
"O 	c #038BE3",
"P 	c #038BE4",
"Q 	c #127090",
"R 	c #0282E1",
"S 	c #0081E0",
"T 	c #0080DF",
"U 	c #0081E1",
"V 	c #57788C",
"W 	c #52A3E5",
"X 	c #50A3E4",
"Y 	c #4FA2E5",
"Z 	c #4EA1E5",
"` 	c #4CA0E4",
" .	c #4BA0E4",
"..	c #4B9FE4",
"+.	c #4A9FE4",
"@.	c #499FE4",
"#.	c #499FE3",
"$.	c #4AA0E4",
"%.	c #4CA1E5",
"&.	c #4DA1E5",
"*.	c #4EA1E4",
"=.	c #B7D1ED",
"-.	c #B9D1F0",
";.	c #BDD0EE",
">.	c #CEDBF0",
",.	c #728096",
"'.	c #647790",
").	c #606977",
"!.	c #4E6979",
"~.	c #3E6A7A",
"{.	c #2F6C7C",
"].	c #226E7E",
"^.	c #197181",
"/.	c #177585",
"(.	c #597D8B",
". . . . . . . . . . . . . . . . . . . . . . . . . . ",
"+ @ # # # $ $ $ % % % % # # # # # # # # # # # @ @ # ",
"+ & * * * = = = * * * * * * * * * * * * * * * & & * ",
"- ; > = = , , , > > > > > > > > > > > > > > > ; ; > ",
"' ) ! , , ~ ~ ~ ! ! ! ! ! ! ! ! ! ! ! ! ! ! ! ) ) ! ",
"{ ] ^ / / ( ( _ _ _ _ _ _ _ _ _ _ _ _ ( ^ ^ ^ : : ^ ",
"< ^ [ [ [ } } _ | | | | | | | | | | _ [ [ [ [ ^ ^ [ ",
"1 ^ [ 2 2 3 3 _ | | | | | | | | | | _ 3 [ [ [ ^ ^ [ ",
"4 5 6 6 6 7 7 _ | | _ _ _ _ _ _ | | _ 8 8 8 8 6 9 6 ",
"0 a b c c d d _ | | _ d b b b _ | | _ d d d d c c b ",
"_ e f f f g g _ | | _ f f f f _ | | _ f f f f h h f ",
"i j k k k l l m | | m m m m m m | | m k k k k n n k ",
"o p q r r s s t | | | | | | | | | | t q q q q r u q ",
"v w x y z A A B | | | | | | | | | | B z x x x C D x ",
"E F G H G I I J J J J J J J J J J J J G G G G K L G ",
"M N O P P O O O O O O O O O O O O O O O O O O P P O ",
"Q R S S S T T T S S S S S S S S S S S S S S S U U S ",
"V W X Y Z `  ...+.+.+.@.#.#.#.#.+.+.+.+.$. . .%.&.*.",
"_ _ _ _ _ _ _ _ _ _ _ _ _ _ _ _ _ _ _ _ _ _ _ _ _ _ ",
"=.=.=.=.=.=.=.=.=.=.=.=.=.=.=.=.=.=.=.=.=.=.=.=.=.=.",
"-.-.-.-.-.-.-.-.-.-.-.-.-.-.-.-.-.-.-.-.-.-.-.-.-.-.",
";.;.;.;.;.;.;.;.;.;.;.;.;.;.;.;.;.;.;.;.;.;.;.;.;.;.",
">.>.>.>.>.>.>.>.>.>.>.>.>.>.>.>.>.>.>.>.>.>.>.>.>.>.",
". . . . . . . . . . . . . . . . . . . . . . . . . . ",
",.@ # # # $ $ $ % % % % # # # # # # # # # # # @ @ # ",
",.& * * * = = = * * * * * * * * * * * * * * * & & * ",
"'.; > = = , , , > > > > > > > > > > > > > > > ; ; > ",
"_ ) ! , , ~ ~ ~ ! ! ! ! ! ! ! ! ! ! ! ! ! ! ! ) ) ! ",
"_ ] ^ / / ( ( _ _ _ _ _ _ _ _ _ _ _ _ ( ^ ^ ^ : : ^ ",
"_ ^ [ [ [ } } _ | | | | | | | | | | _ [ [ [ [ ^ ^ [ ",
"_ ^ [ 2 2 3 3 _ | | | | | | | | | | _ 3 [ [ [ ^ ^ [ ",
"_ 5 6 6 6 7 7 _ | | _ _ _ _ _ _ | | _ 8 8 8 8 6 9 6 ",
"_ a b c c d d _ | | _ d b b b _ | | _ d d d d c c b ",
").e f f f g g _ | | _ f f f f _ | | _ f f f f h h f ",
"!.j k k k l l m | | m m m m m m | | m k k k k n n k ",
"~.p q r r s s t | | | | | | | | | | t q q q q r u q ",
"{.w x y z A A B | | | | | | | | | | B z x x x C D x ",
"].F G H G I I J J J J J J J J J J J J G G G G K L G ",
"^.N O P P O O O O O O O O O O O O O O O O O O P P O ",
"/.R S S S T T T S S S S S S S S S S S S S S S U U S ",
"(.W X Y Z `  ...+.+.+.@.#.#.#.#.+.+.+.+.$. . .%.&.*.",
"_ _ _ _ _ _ _ _ _ _ _ _ _ _ _ _ _ _ _ _ _ _ _ _ _ _ ",
"=.=.=.=.=.=.=.=.=.=.=.=.=.=.=.=.=.=.=.=.=.=.=.=.=.=.",
"-.-.-.-.-.-.-.-.-.-.-.-.-.-.-.-.-.-.-.-.-.-.-.-.-.-.",
";.;.;.;.;.;.;.;.;.;.;.;.;.;.;.;.;.;.;.;.;.;.;.;.;.;.",
">.>.>.>.>.>.>.>.>.>.>.>.>.>.>.>.>.>.>.>.>.>.>.>.>.>."};
