/* XPM */
static char * maximizeA_xpm[] = {
"26 46 128 2",
"  	c None",
". 	c #293454",
"+ 	c #8B8E9D",
"@ 	c #D9EEF1",
"# 	c #DAEEF1",
"$ 	c #D7EEF1",
"% 	c #D8EEF1",
"& 	c #8C8D92",
"* 	c #D3ECF1",
"= 	c #D4EDF1",
"- 	c #8A8D94",
"; 	c #D1EBF1",
"> 	c #D2ECF1",
", 	c #878A91",
"' 	c #CFEAF1",
") 	c #D0EBF1",
"! 	c #CFEBF1",
"~ 	c #567090",
"{ 	c #858891",
"] 	c #CBE9F1",
"^ 	c #CCEAF1",
"/ 	c #FFFFFF",
"( 	c #83868F",
"_ 	c #CAE9F1",
": 	c #CBEAF1",
"< 	c #80838C",
"[ 	c #BDE2F1",
"} 	c #BEE3F1",
"| 	c #BDE3F1",
"1 	c #7B7F8A",
"2 	c #8DCFEF",
"3 	c #8CD0F0",
"4 	c #8BD0F0",
"5 	c #8ACFEF",
"6 	c #89CFEF",
"7 	c #88CFEF",
"8 	c #87CCEC",
"9 	c #86CDED",
"0 	c #85CDED",
"a 	c #83CCEC",
"b 	c #82CCEC",
"c 	c #81CCEC",
"d 	c #81C9EA",
"e 	c #80CAEB",
"f 	c #7FCAEB",
"g 	c #7DC9EA",
"h 	c #7CC9EA",
"i 	c #7BC9EA",
"j 	c #7BC5E8",
"k 	c #7AC6E9",
"l 	c #79C6E9",
"m 	c #77C5E8",
"n 	c #76C5E8",
"o 	c #75C5E8",
"p 	c #75C6E8",
"q 	c #75C2E5",
"r 	c #74C3E6",
"s 	c #73C2E6",
"t 	c #71C2E5",
"u 	c #70C2E5",
"v 	c #6FC2E5",
"w 	c #6FC3E6",
"x 	c #70BFE4",
"y 	c #6FC0E5",
"z 	c #6DBFE5",
"A 	c #6CBFE4",
"B 	c #6ABFE4",
"C 	c #69BFE4",
"D 	c #69C0E4",
"E 	c #6ABCE2",
"F 	c #69BDE3",
"G 	c #67BCE3",
"H 	c #66BCE2",
"I 	c #64BCE2",
"J 	c #63BCE2",
"K 	c #62BCE2",
"L 	c #63BDE2",
"M 	c #65B9DF",
"N 	c #64BAE0",
"O 	c #62B9E0",
"P 	c #60B9DF",
"Q 	c #5FB9DF",
"R 	c #5EB9DF",
"S 	c #5DB9DF",
"T 	c #5EB9E0",
"U 	c #5E788C",
"V 	c #5EB6DD",
"W 	c #5EB7DE",
"X 	c #5EB6DE",
"Y 	c #B7D1ED",
"Z 	c #B9D1F0",
"` 	c #BDD0EE",
" .	c #CEDBF0",
"..	c #728096",
"+.	c #DBEEF1",
"@.	c #DCEEF1",
"#.	c #647790",
"$.	c #D3EDF1",
"%.	c #D1ECF1",
"&.	c #D0EAF1",
"*.	c #CCE9F1",
"=.	c #CAE8F1",
"-.	c #8CD0EF",
";.	c #8BD0EF",
">.	c #8ACFEE",
",.	c #89CFEE",
"'.	c #88CFEE",
").	c #636977",
"!.	c #81CBEC",
"~.	c #636979",
"{.	c #646A7A",
"].	c #7BC6E8",
"^.	c #7AC6E8",
"/.	c #79C6E8",
"(.	c #77C6E7",
"_.	c #76C5E7",
":.	c #75C5E7",
"<.	c #666C7C",
"[.	c #75C3E6",
"}.	c #73C3E6",
"|.	c #686E7E",
"1.	c #70C0E4",
"2.	c #6DC0E5",
"3.	c #6CC0E4",
"4.	c #6A7181",
"5.	c #657585",
"6.	c #65B9E0",
"7.	c #5E7D8B",
". . . . . . . . . . . . . . . . . . . . . . . . . . ",
"+ @ # # @ @ @ @ @ # # # # # # # # # # # # # # # # # ",
"+ $ % % $ $ $ $ $ $ $ $ $ $ $ $ $ $ $ $ $ $ $ $ $ $ ",
"& * = = * * * * * * * * * * * = = = = = = = = = = = ",
"- ; > > ; ; ; ; ; ; ; ; ; ; ; ; ; ; ; ; ; ; ; ; ; ; ",
", ' ) ! ' ' ' ~ ~ ~ ~ ~ ~ ~ ~ ~ ~ ~ ~ ) ) ) ) ) ) ) ",
"{ ] ^ ^ ] ] ] ~ / / / / / / / / / / ~ ] ] ] ] ] ] ] ",
"( _ : : _ _ _ ~ / / / / / / / / / / ~ _ _ _ _ _ _ _ ",
"< [ } | [ [ [ ~ / / ~ ~ ~ ~ ~ ~ / / ~ [ [ [ [ [ [ [ ",
"1 2 3 4 5 6 7 ~ / / ~ 7 7 7 7 ~ / / ~ 7 7 7 7 7 7 7 ",
"~ 8 9 0 a b c ~ / / ~ c c c c ~ / / ~ c c c c c c c ",
"~ d e f g h i ~ / / ~ ~ ~ ~ ~ ~ / / ~ i i i i i i i ",
"~ j k l m n o ~ / / / / / / / / / / ~ p p o o o o o ",
"~ q r s t u v ~ / / / / / / / / / / ~ w w w w w w w ",
"~ x y z A B C ~ ~ ~ ~ ~ ~ ~ ~ ~ ~ ~ ~ D D D D D D D ",
"~ E F G H I J J K J J J J J J L L L L L L J J J J J ",
"~ M N O P Q R R S T T T T T T T T T T T T T T T T T ",
"U V W X V V V V V V V V V V V X X X X X X X X X X X ",
"~ ~ ~ ~ ~ ~ ~ ~ ~ ~ ~ ~ ~ ~ ~ ~ ~ ~ ~ ~ ~ ~ ~ ~ ~ ~ ",
"Y Y Y Y Y Y Y Y Y Y Y Y Y Y Y Y Y Y Y Y Y Y Y Y Y Y ",
"Z Z Z Z Z Z Z Z Z Z Z Z Z Z Z Z Z Z Z Z Z Z Z Z Z Z ",
"` ` ` ` ` ` ` ` ` ` ` ` ` ` ` ` ` ` ` ` ` ` ` ` ` ` ",
" . . . . . . . . . . . . . . . . . . . . . . . . . .",
". . . . . . . . . . . . . . . . . . . . . . . . . . ",
"..+.+.+.# # # # # +.+.+.+.+.+.# # # # # # # +.+.@.@.",
"..$ % % $ $ $ $ $ $ $ $ $ $ $ $ $ $ $ $ $ $ $ $ $ $ ",
"#.= = = * * * * * = = = = = = * * * * * * * * * $.= ",
"~ %.> > %.; ; ; ; ; ; ; ; ; ; ; ; ; ; ; ; ; ; ; ; ; ",
"~ ) ) ) ' ' ' ~ ~ ~ ~ ~ ~ ~ ~ ~ ~ ~ ~ ' ' ' ' ' ' &.",
"~ *.^ ^ *.] ] ~ / / / / / / / / / / ~ ] ] ] ] ] ] ] ",
"~ _ : : _ _ _ ~ / / / / / / / / / / ~ =.=.=.=.=.=._ ",
"~ } } } [ [ [ ~ / / ~ ~ ~ ~ ~ ~ / / ~ [ [ [ [ [ [ | ",
"~ 2 -.;.>.,.'.~ / / ~ 7 7 7 7 ~ / / ~ '.'.'.'.'.7 7 ",
").8 9 0 a b c ~ / / ~ c c c c ~ / / ~ !.!.!.!.!.!.c ",
"~.d e f g h i ~ / / ~ ~ ~ ~ ~ ~ / / ~ i i i i i i i ",
"{.].^./.(._.:.~ / / / / / / / / / / ~ :.:.:.:.:.:.o ",
"<.[.r }.t u v ~ / / / / / / / / / / ~ v v v v v v v ",
"|.1.y 2.3.B C ~ ~ ~ ~ ~ ~ ~ ~ ~ ~ ~ ~ C C C C C C C ",
"4.E F G H I J J K J J J J J J J J J J J J J J J J J ",
"5.6.N O P Q R R S T T T T T T R R R R R R R R R R R ",
"7.X W X V V V V V X X X X X X V V V V V V V V V V W ",
"~ ~ ~ ~ ~ ~ ~ ~ ~ ~ ~ ~ ~ ~ ~ ~ ~ ~ ~ ~ ~ ~ ~ ~ ~ ~ ",
"Y Y Y Y Y Y Y Y Y Y Y Y Y Y Y Y Y Y Y Y Y Y Y Y Y Y ",
"Z Z Z Z Z Z Z Z Z Z Z Z Z Z Z Z Z Z Z Z Z Z Z Z Z Z ",
"` ` ` ` ` ` ` ` ` ` ` ` ` ` ` ` ` ` ` ` ` ` ` ` ` ` ",
" . . . . . . . . . . . . . . . . . . . . . . . . . ."};
