/* XPM */
static char * minimizeO_xpm[] = {
"26 46 131 2",
"  	c None",
". 	c #003259",
"+ 	c #293454",
"@ 	c #E9F0F4",
"# 	c #567090",
"$ 	c #C6EAF1",
"% 	c #BDE9F1",
"& 	c #BCE9F1",
"* 	c #BCE8F1",
"= 	c #BBE7F1",
"- 	c #BBE8F1",
"; 	c #98B5D1",
"> 	c #C4EAF1",
", 	c #BBE9F1",
"' 	c #BAE9F1",
") 	c #BAE8F1",
"! 	c #B9E7F1",
"~ 	c #9CB7D1",
"{ 	c #C3E7F1",
"] 	c #BAE7F1",
"^ 	c #B9E6F1",
"/ 	c #B8E6F1",
"( 	c #9DB8D3",
"_ 	c #C2E8F1",
": 	c #B8E7F1",
"< 	c #B7E6F1",
"[ 	c #B7E5F1",
"} 	c #9FBAD5",
"| 	c #C0E7F1",
"1 	c #B6E6F1",
"2 	c #B5E5F1",
"3 	c #B6E5F1",
"4 	c #B5E4F1",
"5 	c #B4E5F1",
"6 	c #B4E4F1",
"7 	c #B3E3F1",
"8 	c #A1BCD7",
"9 	c #C0E6F1",
"0 	c #B3E4F1",
"a 	c #A3BED9",
"b 	c #B4E1F1",
"c 	c #A6DEF1",
"d 	c #A5DEF1",
"e 	c #A5DDF1",
"f 	c #A4DCF1",
"g 	c #A5DCF1",
"h 	c #A6DDF1",
"i 	c #A5C0DB",
"j 	c #90CFF1",
"k 	c #77C8F1",
"l 	c #77C7F1",
"m 	c #76C7F1",
"n 	c #A7C2DD",
"o 	c #7FCAF1",
"p 	c #61C0F1",
"q 	c #60BFF1",
"r 	c #60BEF1",
"s 	c #60C0F1",
"t 	c #A9C4DF",
"u 	c #507090",
"v 	c #6DC0F1",
"w 	c #4AB4F1",
"x 	c #49B3F1",
"y 	c #49B2F1",
"z 	c #497090",
"A 	c #FFFFFF",
"B 	c #49B4F1",
"C 	c #ABC6E1",
"D 	c #467090",
"E 	c #5DB9F0",
"F 	c #35ABF0",
"G 	c #34AAF0",
"H 	c #34AAEF",
"I 	c #34A9EF",
"J 	c #347090",
"K 	c #34ABF0",
"L 	c #ADC8E3",
"M 	c #3D7090",
"N 	c #4EB0ED",
"O 	c #229FEC",
"P 	c #21A0EC",
"Q 	c #219FEB",
"R 	c #20A0EB",
"S 	c #209FEA",
"T 	c #207090",
"U 	c #209FEB",
"V 	c #B1C8E7",
"W 	c #357090",
"X 	c #40A9EA",
"Y 	c #1095E8",
"Z 	c #0F96E8",
"` 	c #0F95E7",
" .	c #0F96E7",
"..	c #0F95E6",
"+.	c #0F7090",
"@.	c #B3C9E5",
"#.	c #2F7090",
"$.	c #37A1E6",
"%.	c #048BE4",
"&.	c #038CE4",
"*.	c #038BE3",
"=.	c #B3CDE4",
"-.	c #2E7090",
";.	c #3499E4",
">.	c #0181E1",
",.	c #0081E1",
"'.	c #0081E0",
").	c #0080DF",
"!.	c #B4D1E6",
"~.	c #547090",
"{.	c #74B4E6",
"].	c #52A4E5",
"^.	c #50A3E5",
"/.	c #4FA2E4",
"(.	c #4DA1E5",
"_.	c #4CA0E4",
":.	c #4BA0E4",
"<.	c #4B9FE4",
"[.	c #4A9FE4",
"}.	c #499FE3",
"|.	c #4CA1E5",
"1.	c #4DA1E4",
"2.	c #4EA1E5",
"3.	c #B5D3EA",
"4.	c #B7D1ED",
"5.	c #B9D1F0",
"6.	c #BDD0EE",
"7.	c #CEDBF0",
"8.	c #003256",
"9.	c #003255",
"0.	c #003254",
". + + + + + + + + + + + + + + + + + + + + + + + + + ",
"@ # $ % & * * = = - - - - * * * * * * * * * * % * % ",
"; # > , ' ) ) ! ! ) ) ) ) ) ) ) ) ) ) ) ) ) ) , ) , ",
"~ # { ] ! ^ ! / / ^ ^ ^ ^ ^ ^ ^ ^ ^ ^ ^ ^ ^ ^ ] ^ ] ",
"( # _ : : < / [ [ < < < < < < < < < < < < < < : < : ",
"} # | 1 1 2 3 4 4 4 4 4 4 2 2 2 2 4 4 4 4 2 2 1 2 1 ",
"} # | 2 5 6 6 7 7 6 6 6 6 6 6 6 6 6 6 6 6 6 6 2 6 2 ",
"8 # 9 2 5 6 5 0 0 0 0 0 0 6 6 6 6 0 0 0 0 6 6 2 6 2 ",
"a # b c d e e f f g g g g e e e e g g g g g g h e c ",
"i # j k k l k m m m m m m l l l l m m m m m m k l k ",
"n # o p q q q r # # # # # # # # # # # # q q q s q s ",
"t u v w x x x y z A A A A A A A A A A z x x x B x B ",
"C D E F G H G I J A A A A A A A A A A J H H H K H K ",
"L M N O P Q R S T A A A A A A A A A A T U Q Q P Q P ",
"V W X Y Z `  ...+.+.+.+.+.+.+.+.+.+.+.+.` ` ` Z ` Z ",
"@.#.$.%.&.*.&.*.*.*.*.*.*.*.*.*.*.*.*.*.*.*.*.&.*.&.",
"=.-.;.>.,.'.'.).).'.'.'.'.'.'.'.'.'.'.'.'.'.'.,.'.,.",
"!.~.{.].^./.(._.:.<.[.[.[.}.}.}.}.[.[.[.[.:.:.|.1.2.",
"3.# # # # # # # # # # # # # # # # # # # # # # # # # ",
"4.4.4.4.4.4.4.4.4.4.4.4.4.4.4.4.4.4.4.4.4.4.4.4.4.4.",
"5.5.5.5.5.5.5.5.5.5.5.5.5.5.5.5.5.5.5.5.5.5.5.5.5.5.",
"6.6.6.6.6.6.6.6.6.6.6.6.6.6.6.6.6.6.6.6.6.6.6.6.6.6.",
"7.7.7.7.7.7.7.7.7.7.7.7.7.7.7.7.7.7.7.7.7.7.7.7.7.7.",
". 8.9.0.0.0.0.0.0.0.0.0.0.0.0.0.0.0.0.0.0.0.0.0.0.0.",
"@ + + + + + + + + + + + + + + + + + + + + + + + + + ",
"; # > , ' ) ) ! ! ) ) ) ) ) ) ) ) ) ) ) ) ) ) , ) , ",
"~ # { ] ! ^ ! / / ^ ^ ^ ^ ^ ^ ^ ^ ^ ^ ^ ^ ^ ^ ] ^ ] ",
"( # _ : : < / [ [ < < < < < < < < < < < < < < : < : ",
"} # | 1 1 2 3 4 4 4 4 4 4 2 2 2 2 4 4 4 4 2 2 1 2 1 ",
"} # | 2 5 6 6 7 7 6 6 6 6 6 6 6 6 6 6 6 6 6 6 2 6 2 ",
"8 # 9 2 5 6 5 0 0 0 0 0 0 6 6 6 6 0 0 0 0 6 6 2 6 2 ",
"a # b c d e e f f g g g g e e e e g g g g g g h e c ",
"i # j k k l k m m m m m m l l l l m m m m m m k l k ",
"n # o p q q q r # # # # # # # # # # # # q q q s q s ",
"t u v w x x x y z A A A A A A A A A A z x x x B x B ",
"C D E F G H G I J A A A A A A A A A A J H H H K H K ",
"L M N O P Q R S T A A A A A A A A A A T U Q Q P Q P ",
"V W X Y Z `  ...+.+.+.+.+.+.+.+.+.+.+.+.` ` ` Z ` Z ",
"@.#.$.%.&.*.&.*.*.*.*.*.*.*.*.*.*.*.*.*.*.*.*.&.*.&.",
"=.-.;.>.,.'.'.).).'.'.'.'.'.'.'.'.'.'.'.'.'.'.,.'.,.",
"!.~.{.].^./.(._.:.<.[.[.[.}.}.}.}.[.[.[.[.:.:.|.1.2.",
"3.# # # # # # # # # # # # # # # # # # # # # # # # # ",
"4.4.4.4.4.4.4.4.4.4.4.4.4.4.4.4.4.4.4.4.4.4.4.4.4.4.",
"5.5.5.5.5.5.5.5.5.5.5.5.5.5.5.5.5.5.5.5.5.5.5.5.5.5.",
"6.6.6.6.6.6.6.6.6.6.6.6.6.6.6.6.6.6.6.6.6.6.6.6.6.6.",
"7.7.7.7.7.7.7.7.7.7.7.7.7.7.7.7.7.7.7.7.7.7.7.7.7.7."};
