/* XPM */
static char * minimizeA_xpm[] = {
"26 46 153 2",
"  	c None",
". 	c #003259",
"+ 	c #293454",
"@ 	c #E9F0F4",
"# 	c #567090",
"$ 	c #DEEEF1",
"% 	c #DAEEF1",
"& 	c #DBEEF1",
"* 	c #DDEEF1",
"= 	c #98B5D1",
"- 	c #D7EEF1",
"; 	c #D8EEF1",
"> 	c #D6EEF1",
", 	c #D9EEF1",
"' 	c #9CB7D1",
") 	c #D9ECF1",
"! 	c #D4EDF1",
"~ 	c #D5EEF1",
"{ 	c #D3ECF1",
"] 	c #D7ECF1",
"^ 	c #9DB8D3",
"/ 	c #D7EBF1",
"( 	c #D1ECF1",
"_ 	c #D2ECF1",
": 	c #D1EBF1",
"< 	c #D5EBF1",
"[ 	c #9FBAD5",
"} 	c #D6EBF1",
"| 	c #D0ECF1",
"1 	c #D0EBF1",
"2 	c #CFEAF1",
"3 	c #D4EAF1",
"4 	c #D3EAF1",
"5 	c #CBEAF1",
"6 	c #CCEAF1",
"7 	c #CBE9F1",
"8 	c #D1EAF1",
"9 	c #A1BCD7",
"0 	c #D2EAF1",
"a 	c #CAEAF1",
"b 	c #CAE9F1",
"c 	c #CAE8F1",
"d 	c #D0E9F1",
"e 	c #A3BED9",
"f 	c #C9E5F1",
"g 	c #BDE3F1",
"h 	c #BEE3F1",
"i 	c #BDE2F1",
"j 	c #C5E4F1",
"k 	c #A5C0DB",
"l 	c #A2D7EF",
"m 	c #88CFF0",
"n 	c #88D0F0",
"o 	c #89D0F0",
"p 	c #88CFEF",
"q 	c #88CFEE",
"r 	c #88CEEE",
"s 	c #89CFEF",
"t 	c #9BD4EE",
"u 	c #A7C2DD",
"v 	c #9DD5ED",
"w 	c #81CCED",
"x 	c #81CDED",
"y 	c #81CCEC",
"z 	c #81CBEC",
"A 	c #95D2ED",
"B 	c #A9C4DF",
"C 	c #99D3EB",
"D 	c #7BC9EB",
"E 	c #7BCAEB",
"F 	c #7BC9EA",
"G 	c #FFFFFF",
"H 	c #91D0EB",
"I 	c #ABC6E1",
"J 	c #94D0EA",
"K 	c #75C5E9",
"L 	c #75C6E9",
"M 	c #75C7E9",
"N 	c #75C6E8",
"O 	c #75C5E8",
"P 	c #75C5E7",
"Q 	c #8CCDE9",
"R 	c #ADC8E3",
"S 	c #90CEE8",
"T 	c #6FC2E6",
"U 	c #6FC3E6",
"V 	c #6FC4E7",
"W 	c #6FC2E5",
"X 	c #87CAE7",
"Y 	c #B1C8E7",
"Z 	c #8CCBE7",
"` 	c #69BFE5",
" .	c #69C0E5",
"..	c #69C1E5",
"+.	c #69C0E4",
"@.	c #69BFE4",
"#.	c #82C8E6",
"$.	c #B3C9E5",
"%.	c #87C9E6",
"&.	c #63BCE3",
"*.	c #63BDE3",
"=.	c #63BEE3",
"-.	c #63BDE2",
";.	c #63BCE2",
">.	c #7DC6E5",
",.	c #B3CDE4",
"'.	c #84C7E4",
").	c #5EB9E1",
"!.	c #5EBAE1",
"~.	c #5EB9E0",
"{.	c #5EB9DF",
"].	c #5EBAE0",
"^.	c #79C3E2",
"/.	c #B4D1E6",
"(.	c #84C5E2",
"_.	c #5EB6DE",
":.	c #5EB7DE",
"<.	c #5EB7DF",
"[.	c #5EB6DD",
"}.	c #79C1E1",
"|.	c #B5D3EA",
"1.	c #B7D1ED",
"2.	c #B9D1F0",
"3.	c #BDD0EE",
"4.	c #CEDBF0",
"5.	c #DCEEF1",
"6.	c #D9EDF1",
"7.	c #D5ECF1",
"8.	c #D8ECF1",
"9.	c #D3EBF1",
"0.	c #D4EBF1",
"a.	c #CEE9F1",
"b.	c #CDE8F1",
"c.	c #C9E6F1",
"d.	c #C1E3F1",
"e.	c #A3D8F0",
"f.	c #92D1EE",
"g.	c #9DD6EE",
"h.	c #8CCEEC",
"i.	c #99D4EC",
"j.	c #86CCEA",
"k.	c #95D1EB",
"l.	c #81C9E8",
"m.	c #90CEE9",
"n.	c #7BC6E6",
"o.	c #8CCCE8",
"p.	c #76C3E5",
"q.	c #88C9E6",
"r.	c #71C1E3",
"s.	c #84C8E5",
"t.	c #6CBEE0",
"u.	c #84C6E3",
"v.	c #6CBBDF",
". + + + + + + + + + + + + + + + + + + + + + + + + + ",
"@ # $ % & & % % % % % % % % % % % % % % % % & & % * ",
"= # & - ; ; - - - - - - - > > > > > > > > > - - > , ",
"' # ) ! ! ~ ! ! ! ! { { { { { { { { { { { { ! ! { ] ",
"^ # / ( _ _ : : : : : : : : : : : : : : : : _ _ : < ",
"[ # } | ( ( 1 1 1 1 2 2 2 2 2 2 2 2 2 2 2 2 1 1 2 3 ",
"[ # 4 5 6 6 7 7 7 7 7 7 7 7 7 7 7 7 7 7 7 7 6 6 7 8 ",
"9 # 0 a 5 5 b b b b b b b c c c c c c c c c 7 7 c d ",
"e # f g h h i i i i i i i i i i i i i i i i h h i j ",
"k # l m n o p p p p q q q r r r r r r r r r p s r t ",
"u # v w x x y y # # # # # # # # # # # # z z w w z A ",
"B # C D E E F F # G G G G G G G G G G # F F E E F H ",
"I # J K L M N O # G G G G G G G G G G # P P N N P Q ",
"R # S T U V U U # G G G G G G G G G G # W W U U W X ",
"Y # Z `  ...+.+.# # # # # # # # # # # # @.@. . .@.#.",
"$.# %.&.*.=.-.;.;.;.;.;.;.;.;.;.;.;.;.;.;.;.*.*.;.>.",
",.# '.).!.!.~.~.~.~.{.{.{.{.{.{.{.{.{.{.{.{.].].{.^.",
"/.# (._.:.<._._._._.[.[.[.[.[.[.[.[.[.[.[.[.:.:.[.}.",
"|.# # # # # # # # # # # # # # # # # # # # # # # # # ",
"1.1.1.1.1.1.1.1.1.1.1.1.1.1.1.1.1.1.1.1.1.1.1.1.1.1.",
"2.2.2.2.2.2.2.2.2.2.2.2.2.2.2.2.2.2.2.2.2.2.2.2.2.2.",
"3.3.3.3.3.3.3.3.3.3.3.3.3.3.3.3.3.3.3.3.3.3.3.3.3.3.",
"4.4.4.4.4.4.4.4.4.4.4.4.4.4.4.4.4.4.4.4.4.4.4.4.4.4.",
". . . . . . . . . . . . . . . . . . . . . . . . . . ",
"@ + + + + + + + + + + + + + + + + + + + + + + + + + ",
"= # 5.; - - - - - - - - - > > > > > > > > > > - > ; ",
"' # 6.! { ! ! ! ! ! { { { { { { { { { { { { { ! { 7.",
"^ # 8._ : : : : : : : : : : : : : : : : : : : _ : 9.",
"[ # ] ( 1 1 1 1 1 1 2 2 2 2 2 2 2 2 2 2 2 2 2 1 2 8 ",
"[ # 0.6 7 7 7 7 7 7 7 7 7 7 7 7 7 7 7 7 7 7 7 6 7 a.",
"9 # 9.5 b b b b b b b b b c c c c c c c c c c 7 c b.",
"e # c.h i i i i i i i i i i i i i i i i i i i h i d.",
"k # e.o p p p p p p q q q r r r r r r r r r r p r f.",
"u # g.x y y y y # # # # # # # # # # # # z z z w z h.",
"B # i.E F F F F # G G G G G G G G G G # F F F E F j.",
"I # k.L O N N N # G G G G G G G G G G # P P P N P l.",
"R # m.U W U U U # G G G G G G G G G G # W W W U W n.",
"Y # o. .@.+.+.+.# # # # # # # # # # # # @.@.@. .@.p.",
"$.# q.*.;.-.-.-.;.;.;.;.;.;.;.;.;.;.;.;.;.;.;.*.;.r.",
",.# s.!.~.~.~.~.~.~.{.{.{.{.{.{.{.{.{.{.{.{.{.].{.t.",
"/.# u.:.[._._._._._.[.[.[.[.[.[.[.[.[.[.[.[.[.:.[.v.",
"|.# # # # # # # # # # # # # # # # # # # # # # # # # ",
"1.1.1.1.1.1.1.1.1.1.1.1.1.1.1.1.1.1.1.1.1.1.1.1.1.1.",
"2.2.2.2.2.2.2.2.2.2.2.2.2.2.2.2.2.2.2.2.2.2.2.2.2.2.",
"3.3.3.3.3.3.3.3.3.3.3.3.3.3.3.3.3.3.3.3.3.3.3.3.3.3.",
"4.4.4.4.4.4.4.4.4.4.4.4.4.4.4.4.4.4.4.4.4.4.4.4.4.4."};
