/* XPM */
static char * restoreA_xpm[] = {
"26 46 135 2",
"  	c None",
". 	c #293454",
"+ 	c #5D7491",
"@ 	c #DAEEF1",
"# 	c #D9EEF1",
"$ 	c #DBEEF1",
"% 	c #D8EEF1",
"& 	c #D7EEF1",
"* 	c #647790",
"= 	c #D4EDF1",
"- 	c #D3EDF1",
"; 	c #D3ECF1",
"> 	c #567090",
", 	c #D5EEF1",
"' 	c #D2ECF1",
") 	c #D1ECF1",
"! 	c #D1EBF1",
"~ 	c #FFFFFF",
"{ 	c #D0EBF1",
"] 	c #CFEBF1",
"^ 	c #CFEAF1",
"/ 	c #CCEAF1",
"( 	c #CBEAF1",
"_ 	c #CBE9F1",
": 	c #CAEAF1",
"< 	c #CAE9F1",
"[ 	c #BFE3F1",
"} 	c #BDE3F1",
"| 	c #BEE3F1",
"1 	c #BDE2F1",
"2 	c #90D0F0",
"3 	c #8DCFF0",
"4 	c #8CD0F0",
"5 	c #8BCFEF",
"6 	c #8ACFEF",
"7 	c #88CFEF",
"8 	c #88D0F0",
"9 	c #88D0EF",
"0 	c #8ACDED",
"a 	c #87CCED",
"b 	c #86CDED",
"c 	c #84CCEC",
"d 	c #83CCEC",
"e 	c #81CCEC",
"f 	c #81CDED",
"g 	c #84CAEB",
"h 	c #81C9EB",
"i 	c #80CAEB",
"j 	c #7EC9EA",
"k 	c #7DC9EA",
"l 	c #7BC9EA",
"m 	c #7BCAEB",
"n 	c #7EC7E9",
"o 	c #7BC5E9",
"p 	c #7AC6E9",
"q 	c #78C5E8",
"r 	c #77C5E8",
"s 	c #75C5E8",
"t 	c #75C6E8",
"u 	c #75C6E9",
"v 	c #79C4E6",
"w 	c #75C2E6",
"x 	c #74C3E6",
"y 	c #72C2E5",
"z 	c #71C2E5",
"A 	c #6FC2E5",
"B 	c #6FC3E6",
"C 	c #6FC4E7",
"D 	c #74C1E5",
"E 	c #70BFE5",
"F 	c #6EC0E5",
"G 	c #6DBFE4",
"H 	c #6BBFE4",
"I 	c #69BFE4",
"J 	c #69C0E4",
"K 	c #69C1E5",
"L 	c #69C0E5",
"M 	c #6DBEE3",
"N 	c #6ABCE3",
"O 	c #68BDE3",
"P 	c #67BCE2",
"Q 	c #65BCE2",
"R 	c #63BCE2",
"S 	c #62BCE2",
"T 	c #63BDE2",
"U 	c #63BDE3",
"V 	c #68BBE0",
"W 	c #65B9DF",
"X 	c #63BAE0",
"Y 	c #62B9DF",
"Z 	c #60B9DF",
"` 	c #5EB9DF",
" .	c #5DB9DF",
"..	c #5EB9E0",
"+.	c #5EBAE1",
"@.	c #5EBAE0",
"#.	c #61B8DE",
"$.	c #5EB6DE",
"%.	c #5EB7DE",
"&.	c #5EB6DD",
"*.	c #5EB7DF",
"=.	c #B7D1ED",
"-.	c #B9D1F0",
";.	c #BDD0EE",
">.	c #CEDBF0",
",.	c #DCEEF1",
"'.	c #D2EDF1",
").	c #D0EAF1",
"!.	c #CDEAF1",
"~.	c #CCE9F1",
"{.	c #CAE8F1",
"].	c #C0E4F1",
"^.	c #8DCFEF",
"/.	c #8CD0EF",
"(.	c #8BCFEE",
"_.	c #88CFEE",
":.	c #81CBEC",
"<.	c #81CCED",
"[.	c #7EC8E9",
"}.	c #7BC6E8",
"|.	c #7AC6E8",
"1.	c #78C6E7",
"2.	c #77C6E8",
"3.	c #75C5E7",
"4.	c #79C5E7",
"5.	c #75C3E6",
"6.	c #71C2E6",
"7.	c #74C2E5",
"8.	c #70C0E5",
"9.	c #6DC0E4",
"0.	c #6BC0E4",
"a.	c #68BBE1",
"b.	c #65B9E0",
"c.	c #60B9E0",
"d.	c #61B8DF",
". . . . . . . . . . . . . . . . . . . . . . . . . . ",
"+ @ # @ # # # # # # @ @ @ @ @ @ @ @ @ @ @ @ @ $ $ @ ",
"+ % & % & & & & & & & & & & & & & & & & & & & % % & ",
"* = - = ; ; ; ; ; > > > > > > > > > > = = = = , = = ",
"> ' ) ' ! ! ! ! ! > ~ ~ ~ ~ ~ ~ ~ ~ > ! ! ! ! ' ' ! ",
"> { ] { ^ ^ ^ > > > > > > > > > > ~ > { { { { ) { { ",
"> / ( / _ _ _ > ~ ~ ~ ~ ~ ~ ~ ~ > ~ > _ _ _ _ / / _ ",
"> ( : ( < < < > ~ ~ ~ ~ ~ ~ ~ ~ > ~ > < < < < ( ( < ",
"> [ } | 1 1 1 > ~ ~ > > > > ~ ~ > ~ > 1 1 1 1 | | 1 ",
"> 2 3 4 5 6 7 > ~ ~ > 7 7 > ~ ~ > ~ > 7 7 7 7 8 9 7 ",
"> 0 a b c d e > ~ ~ > e e > ~ ~ > ~ > e e e e f f e ",
"> g h i j k l > ~ ~ > > > > ~ ~ > ~ > l l l l m m l ",
"> n o p q r s > ~ ~ ~ ~ ~ ~ ~ ~ > > > t s s s u u s ",
"> v w x y z A > ~ ~ ~ ~ ~ ~ ~ ~ > B B B B B B C B B ",
"> D E F G H I > > > > > > > > > > J J J J J J K L J ",
"> M N O P Q R R S R R R R R R T T T T T R R R U U R ",
"> V W X Y Z ` `  .` ..........................+.@...",
"> #.$.%.&.&.&.&.&.&.&.&.&.&.&.$.$.$.$.$.$.$.$.*.%.$.",
"> > > > > > > > > > > > > > > > > > > > > > > > > > ",
"=.=.=.=.=.=.=.=.=.=.=.=.=.=.=.=.=.=.=.=.=.=.=.=.=.=.",
"-.-.-.-.-.-.-.-.-.-.-.-.-.-.-.-.-.-.-.-.-.-.-.-.-.-.",
";.;.;.;.;.;.;.;.;.;.;.;.;.;.;.;.;.;.;.;.;.;.;.;.;.;.",
">.>.>.>.>.>.>.>.>.>.>.>.>.>.>.>.>.>.>.>.>.>.>.>.>.>.",
". . . . . . . . . . . . . . . . . . . . . . . . . . ",
"+ ,.$ $ @ $ @ @ @ @ $ $ $ $ $ @ @ @ @ @ @ $ $ ,.,.,.",
"+ % & % & & & & & & & & & & & & & & & & & & & % % & ",
"* , = = ; = ; ; ; > > > > > > > > > > ; ; ; ; = = = ",
"> '.) ' ) ) ! ! ! > ~ ~ ~ ~ ~ ~ ~ ~ > ! ! ! ! ' ' ! ",
"> ) { { ^ ] ^ > > > > > > > > > > ~ > ^ ^ ^ ^ { { ).",
"> !./ / ~.~._ > ~ ~ ~ ~ ~ ~ ~ ~ > ~ > _ _ _ _ / / _ ",
"> ( : ( < < < > ~ ~ ~ ~ ~ ~ ~ ~ > ~ > {.{.{.{._ _ < ",
"> ].| | 1 } 1 > ~ ~ > > > > ~ ~ > ~ > 1 1 1 1 | | } ",
"> 2 ^./.(.6 _.> ~ ~ > 7 7 > ~ ~ > ~ > _._._._.9 9 7 ",
"> 0 a b c d e > ~ ~ > e e > ~ ~ > ~ > :.:.:.:.<.<.e ",
"> g h i j k l > ~ ~ > > > > ~ ~ > ~ > l l l l m m l ",
"> [.}.|.1.2.3.> ~ ~ ~ ~ ~ ~ ~ ~ > > > 3.3.3.3.t t s ",
"> 4.5.x y 6.A > ~ ~ ~ ~ ~ ~ ~ ~ > A A A A A A B B A ",
"> 7.8.F 9.0.I > > > > > > > > > > I I I I I I L L I ",
"> M N O P Q R R S R R R R R R R R R R R R R R U U R ",
"> a.b.X Y c.` `  .` ..........` ` ` ` ` ` ` ` @.@.` ",
"> d.$.%.&.$.&.&.&.&.$.$.$.$.$.&.&.&.&.&.&.&.&.%.%.%.",
"> > > > > > > > > > > > > > > > > > > > > > > > > > ",
"=.=.=.=.=.=.=.=.=.=.=.=.=.=.=.=.=.=.=.=.=.=.=.=.=.=.",
"-.-.-.-.-.-.-.-.-.-.-.-.-.-.-.-.-.-.-.-.-.-.-.-.-.-.",
";.;.;.;.;.;.;.;.;.;.;.;.;.;.;.;.;.;.;.;.;.;.;.;.;.;.",
">.>.>.>.>.>.>.>.>.>.>.>.>.>.>.>.>.>.>.>.>.>.>.>.>.>."};
