/* XPM */
static char * restoreO_xpm[] = {
"26 46 91 1",
" 	c None",
".	c #293454",
"+	c #5D7491",
"@	c #BCE9F1",
"#	c #BCE8F1",
"$	c #BBE7F1",
"%	c #BBE8F1",
"&	c #BDE9F1",
"*	c #BAE9F1",
"=	c #BAE8F1",
"-	c #B9E7F1",
";	c #BBE9F1",
">	c #647790",
",	c #B9E6F1",
"'	c #B8E6F1",
")	c #567090",
"!	c #BAE7F1",
"~	c #B7E7F1",
"{	c #B7E6F1",
"]	c #B7E5F1",
"^	c #FFFFFF",
"/	c #B8E7F1",
"(	c #B5E6F1",
"_	c #B5E5F1",
":	c #B5E4F1",
"<	c #B6E6F1",
"[	c #B4E5F1",
"}	c #B4E4F1",
"|	c #B3E3F1",
"1	c #B3E4F1",
"2	c #A5DEF1",
"3	c #A5DDF1",
"4	c #A4DDF1",
"5	c #A4DCF1",
"6	c #A5DCF1",
"7	c #A6DDF1",
"8	c #77C7F1",
"9	c #76C7F1",
"0	c #76C8F1",
"a	c #77C8F1",
"b	c #60BFF1",
"c	c #60BEF1",
"d	c #60C0F1",
"e	c #4B7090",
"f	c #49B3F1",
"g	c #49B2F1",
"h	c #497090",
"i	c #49B4F1",
"j	c #3A7090",
"k	c #34AAF0",
"l	c #34AAEF",
"m	c #34A9EF",
"n	c #347090",
"o	c #34ABF0",
"p	c #2A7090",
"q	c #219FEC",
"r	c #219FEB",
"s	c #209FEB",
"t	c #209FEA",
"u	c #207090",
"v	c #1C7090",
"w	c #0F95E8",
"x	c #0F95E7",
"y	c #0F95E6",
"z	c #0F7090",
"A	c #127090",
"B	c #038BE4",
"C	c #038BE3",
"D	c #0081E1",
"E	c #0081E0",
"F	c #0080E0",
"G	c #0080DF",
"H	c #527090",
"I	c #51A3E5",
"J	c #50A2E4",
"K	c #4FA2E4",
"L	c #4DA1E4",
"M	c #4CA0E4",
"N	c #4BA0E4",
"O	c #4B9FE4",
"P	c #4A9FE4",
"Q	c #499FE4",
"R	c #499FE3",
"S	c #4AA0E4",
"T	c #4BA1E5",
"U	c #4DA1E5",
"V	c #4EA1E4",
"W	c #B7D1ED",
"X	c #B9D1F0",
"Y	c #BDD0EE",
"Z	c #CEDBF0",
"..........................",
"+@###$$$%%%%##########&#@#",
"+*===---==============;=*=",
">-,,,''',)))))))))),,,!,-,",
")~{{{]]]{)^^^^^^^^){{{/{~{",
")(___::))))))))))^):__<_(_",
")[}}}||)^^^^^^^^)^)}}}_}[}",
")[}}}11)^^^^^^^^)^)1}}_}_}",
")233455)^^))))^^)^)6667633",
")888999)^^)98)^^)^)99909a8",
")bbbbcc)^^)bb)^^)^)bbbdbbb",
"effffggh^^hhhh^^h^hfffifff",
"jkllmmmn^^^^^^^^nnnlllolkl",
"pqrrsttu^^^^^^^^usssrrqrqr",
"vwxxxyyzzzzzzzzzzxxxxxwxwx",
"ABCCCCCCCCCCCCCCCCCCCCBCBC",
"zDEEFGGGEEEEEEEEEEEEEEDEDE",
"HIJKLMNOPPPQRRRRPPPPSNTMUV",
"))))))))))))))))))))))))))",
"WWWWWWWWWWWWWWWWWWWWWWWWWW",
"XXXXXXXXXXXXXXXXXXXXXXXXXX",
"YYYYYYYYYYYYYYYYYYYYYYYYYY",
"ZZZZZZZZZZZZZZZZZZZZZZZZZZ",
"..........................",
"+@###$$$%%%%##########&#@#",
"+*===---==============;=*=",
">-,,,''',)))))))))),,,!,-,",
")~{{{]]]{)^^^^^^^^){{{/{~{",
")(___::))))))))))^):__<_(_",
")[}}}||)^^^^^^^^)^)}}}_}[}",
")[}}}11)^^^^^^^^)^)1}}_}_}",
")233455)^^))))^^)^)6667633",
")888999)^^)98)^^)^)99909a8",
")bbbbcc)^^)bb)^^)^)bbbdbbb",
"effffggh^^hhhh^^h^hfffifff",
"jkllmmmn^^^^^^^^nnnlllolkl",
"pqrrsttu^^^^^^^^usssrrqrqr",
"vwxxxyyzzzzzzzzzzxxxxxwxwx",
"ABCCCCCCCCCCCCCCCCCCCCBCBC",
"zDEEFGGGEEEEEEEEEEEEEEDEDE",
"HIJKLMNOPPPQRRRRPPPPSNTMUV",
"))))))))))))))))))))))))))",
"WWWWWWWWWWWWWWWWWWWWWWWWWW",
"XXXXXXXXXXXXXXXXXXXXXXXXXX",
"YYYYYYYYYYYYYYYYYYYYYYYYYY",
"ZZZZZZZZZZZZZZZZZZZZZZZZZZ"};
