/* XPM */
static char * restoreI_xpm[] = {
"26 46 11 1",
" 	c None",
".	c #293454",
"+	c #5D7491",
"@	c #E9EEF1",
"#	c #647790",
"$	c #567090",
"%	c #FCFCFC",
"&	c #B7D1ED",
"*	c #B9D1F0",
"=	c #BDD0EE",
"-	c #CEDBF0",
"..........................",
"+@@@@@@@@@@@@@@@@@@@@@@@@@",
"+@@@@@@@@@@@@@@@@@@@@@@@@@",
"#@@@@@@@@$$$$$$$$$$@@@@@@@",
"$@@@@@@@@$%%%%%%%%$@@@@@@@",
"$@@@@@@$$$$$$$$$$%$@@@@@@@",
"$@@@@@@$%%%%%%%%$%$@@@@@@@",
"$@@@@@@$%%%%%%%%$%$@@@@@@@",
"$@@@@@@$%%$$$$%%$%$@@@@@@@",
"$@@@@@@$%%$@@$%%$%$@@@@@@@",
"$@@@@@@$%%$@@$%%$%$@@@@@@@",
"$@@@@@@$%%$$$$%%$%$@@@@@@@",
"$@@@@@@$%%%%%%%%$$$@@@@@@@",
"$@@@@@@$%%%%%%%%$@@@@@@@@@",
"$@@@@@@$$$$$$$$$$@@@@@@@@@",
"$@@@@@@@@@@@@@@@@@@@@@@@@@",
"$@@@@@@@@@@@@@@@@@@@@@@@@@",
"$@@@@@@@@@@@@@@@@@@@@@@@@@",
"$$$$$$$$$$$$$$$$$$$$$$$$$$",
"&&&&&&&&&&&&&&&&&&&&&&&&&&",
"**************************",
"==========================",
"--------------------------",
"..........................",
"+@@@@@@@@@@@@@@@@@@@@@@@@@",
"+@@@@@@@@@@@@@@@@@@@@@@@@@",
"#@@@@@@@@$$$$$$$$$$@@@@@@@",
"$@@@@@@@@$%%%%%%%%$@@@@@@@",
"$@@@@@@$$$$$$$$$$%$@@@@@@@",
"$@@@@@@$%%%%%%%%$%$@@@@@@@",
"$@@@@@@$%%%%%%%%$%$@@@@@@@",
"$@@@@@@$%%$$$$%%$%$@@@@@@@",
"$@@@@@@$%%$@@$%%$%$@@@@@@@",
"$@@@@@@$%%$@@$%%$%$@@@@@@@",
"$@@@@@@$%%$$$$%%$%$@@@@@@@",
"$@@@@@@$%%%%%%%%$$$@@@@@@@",
"$@@@@@@$%%%%%%%%$@@@@@@@@@",
"$@@@@@@$$$$$$$$$$@@@@@@@@@",
"$@@@@@@@@@@@@@@@@@@@@@@@@@",
"$@@@@@@@@@@@@@@@@@@@@@@@@@",
"$@@@@@@@@@@@@@@@@@@@@@@@@@",
"$$$$$$$$$$$$$$$$$$$$$$$$$$",
"&&&&&&&&&&&&&&&&&&&&&&&&&&",
"**************************",
"==========================",
"--------------------------"};
