/* XPM */
static char * titleAT_xpm[] = {
"1 23 5 1",
" 	c None",
".	c #003259",
"+	c #B9D1F0",
"@	c #BDD0EE",
"#	c #CEDBF0",
".",
"+",
"+",
"+",
"+",
"+",
"+",
"+",
"+",
"+",
"+",
"+",
"@",
"@",
"@",
"@",
"@",
"@",
"@",
"@",
"@",
"@",
"#"};
