/* XPM */
static char *dummy[]={
"14 20 3 1",
"a c #000000",
". c #333333",
"# c #ff00ff",
"..............",
"..##########..",
".#a########a#.",
".##........##.",
".##........##.",
".##........##.",
".##........##.",
".##........##.",
".#..........#.",
"..##########..",
"..##########..",
"............#.",
"...........##.",
"...........##.",
"...........##.",
"...........##.",
"...........##.",
"...########a#.",
"..##########..",
".............."};
