/* XPM */
static char *dummy[]={
"24 24 9 1",
"g c #000000",
"e c #006666",
"# c #33ffff",
"f c #660066",
"c c #993399",
"a c #9966cc",
"d c #cc00cc",
". c #cccccc",
"b c #ff00ff",
"........................",
".######################.",
".######################.",
".######################.",
".######################.",
".######################.",
".######################.",
".######################.",
".######################.",
".######################.",
".######################.",
".######################.",
".######################.",
".######################.",
".######################.",
".######################.",
".######################.",
".######################.",
".abbbba################.",
".cbddbceeeeeeeeeeeeeeee.",
".fbggbfgggggggggggggggg.",
".fbddbfgggggggggggggggg.",
".fbbbbfgggggggggggggggg.",
"........................"};
