/* XPM */
static char *dummy[]={
"383 22 2 1",
"# c #009999",
". c #333333",
"...............................................................................................................................................................................................................................................................................................................................................................................................",
"...............................................................................................................................................................................................................................................................................................................................................................................................",
"...............................................................................................................................................................................................................................................................................................................................................................................................",
"...............................................................................................................................................................................................................................................................................................................................................................................................",
"...............................................................................................................................................................................................................................................................................................................................................................................................",
"...............................................................................................................................................................................................................................................................................................................................................................................................",
"...............................................................................................................................................................................................................................................................................................................................................................................................",
"...............................................................................................................................................................................................................................................................................................................................................................................................",
"...............................................................................................................................................................................................................................................................................................................................................................................................",
"...............................................................................................................................................................................................................................................................................................................................................................................................",
"...............................................................................................................................................................................................................................................................................................................................................................................................",
"...............................................................................................................................................................................................................................................................................................................................................................................................",
"...............................................................................................................................................................................................................................................................................................................................................................................................",
"...............................................................................................................................................................................................................................................................................................................................................................................................",
"...............................................................................................................................................................................................................................................................................................................................................................................................",
"...............................................................................................................................................................................................................................................................................................................................................................................................",
"...............................................................................................................................................................................................................................................................................................................................................................................................",
"...............................................................................................................................................................................................................................................................................................................................................................................................",
"...............................................................................................................................................................................................................................................................................................................................................................................................",
"...............................................................................................................................................................................................................................................................................................................................................................................................",
"###############################################################################################################################################################################################################################################################################################################################################################################################",
"###############################################################################################################################################################################################################################################################################################################################################################################################"};
