/* XPM */
static char *dummy[]={
"24 24 3 1",
"# c None",
". c #31e6f0",
"a c #f3008e",
".................#######",
"...........a.a.a.#######",
".................#######",
".###############.#######",
".##.................####",
".##...........a.a.a.####",
".##.................####",
".##.############.##.####",
".##.##.................#",
".##.##...........a.a.a.#",
".##.##.................#",
".................##.##.#",
"###.##.############.##.#",
"###.##.############.##.#",
"###.##.############.##.#",
"###.................##.#",
"######.###############.#",
"######.###############.#",
"######.###############.#",
"######.................#",
"########################",
"########################",
"########################",
"########################"};
